<svg width="14" height="14" viewBox="0 0 14 14" fill="none" xmlns="http://www.w3.org/2000/svg">
<g clip-path="url(#clip0_1397_3251)">
<path d="M1.6386 0.0543647C1.65271 0.036968 1.66628 0.0201149 1.6804 0.00271824C1.81393 0.00217459 1.94692 0.00108729 2.08046 0C2.22485 0.0168531 2.36924 0.0168531 2.51418 0H2.94898C3.09337 0.0168531 3.23776 0.0168531 3.38215 0C3.52709 0 3.67202 0 3.81696 0C3.96135 0.0168531 4.10574 0.0168531 4.25067 0H4.68548C4.82987 0.0168531 4.97426 0.0168531 5.11865 0H5.55345C5.69839 0.0168531 5.84278 0.0168531 5.98717 0H6.42197C6.56636 0.0168531 6.7113 0.0168531 6.85569 0H7.29049C7.43488 0.0168531 7.57928 0.0168531 7.72367 0H8.15847C8.3034 0.0168531 8.4478 0.0168531 8.59219 0H9.02699C9.17138 0.0168531 9.31577 0.0168531 9.46071 0H9.89551C10.0399 0.0168531 10.1843 0.0168531 10.3287 0H10.7635C10.9084 0.0168531 11.0528 0.0168531 11.1972 0H11.632C11.7764 0.0168531 11.9208 0.0168531 12.0657 0C12.1819 0 12.2975 0 12.4137 0C12.4538 0.0152221 12.4984 0.0250078 12.5049 0.0788288C12.519 0.532774 12.5092 0.98672 12.5103 1.44066C12.5103 1.48144 12.5065 1.52167 12.4777 1.55483C12.4175 1.59669 12.3485 1.59017 12.2812 1.59017C8.80118 1.59071 5.32167 1.59071 1.84162 1.59017C1.77865 1.59017 1.71459 1.59397 1.65543 1.56407C1.57997 1.49503 1.57617 1.40587 1.59083 1.31454C1.6158 1.16177 1.60874 1.01064 1.59246 0.857332C1.56423 0.588226 1.59029 0.320208 1.6386 0.0543647Z" fill="black"/>
<path d="M1.5675 1.60375C1.60712 1.60103 1.64512 1.59505 1.64946 1.54395C5.1762 1.54395 8.70293 1.54395 12.2297 1.54449C12.3111 1.54449 12.392 1.55156 12.4734 1.55536C12.4989 1.56732 12.513 1.5907 12.5315 1.61081C12.5695 1.66681 12.5678 1.73042 12.5678 1.79402C12.5678 5.2788 12.5678 8.76412 12.5678 12.2489C12.5678 12.4876 12.5081 12.5381 12.2351 12.5381C9.0612 12.5381 5.8873 12.5381 2.71394 12.5381C2.41539 12.5381 2.11738 12.5387 1.81883 12.5381C1.72763 12.5381 1.63589 12.5349 1.57347 12.4517C1.51104 12.3587 1.52136 12.2527 1.52136 12.1494C1.52082 10.8604 1.52136 9.57144 1.52136 8.28245C1.52136 6.1432 1.52136 4.00395 1.52244 1.86415C1.52244 1.77608 1.50127 1.68149 1.56858 1.60429L1.5675 1.60375Z" fill="#04CE05"/>
<path d="M1.5675 1.60383C1.56696 1.72125 1.56533 1.83922 1.56533 1.95665C1.56533 5.187 1.56533 8.4179 1.56587 11.6482C1.56587 11.9184 1.55122 12.1892 1.58216 12.4594C1.56967 12.4713 1.55502 12.4768 1.53819 12.4773C1.22986 12.4784 0.921539 12.4838 0.612672 12.4773C0.539933 12.4757 0.469909 12.4833 0.40477 12.5175C0.380886 12.5262 0.355373 12.529 0.330403 12.5311C0.0345633 12.5469 -0.0376324 12.4654 0.0161073 12.1767C0.0437913 12.0288 0.0394487 11.8809 0.0182786 11.732C-0.00234878 11.5879 0.0123075 11.4438 0.0155644 11.2992C0.0247925 10.8632 0.0258781 10.4267 0.0150216 9.99067C0.0112218 9.84606 -0.00180596 9.70199 0.0188214 9.55793C0.0399916 9.41386 0.0394487 9.27088 0.0188214 9.12627C-0.00234878 8.9822 -0.00180596 8.83759 0.0188214 8.69353C0.0399916 8.54457 0.0394487 8.39778 0.0188214 8.24882C-0.00126314 8.1053 -0.00126314 7.96015 0.0209927 7.81608C0.0421629 7.67636 0.0421629 7.53719 0.0220783 7.39802C0.00036534 7.24471 -0.000177485 7.09194 0.0220783 6.93918C0.0421629 6.80435 0.0427057 6.66898 0.0220783 6.53416C-0.000720309 6.38085 -0.000720309 6.22809 0.0204499 6.07532C0.0399916 5.93561 0.0405344 5.79643 0.0204499 5.65726C-0.00126314 5.50449 -0.000720309 5.35173 0.0220783 5.19842C0.0421629 5.0636 0.04162 4.92823 0.0220783 4.7934C-0.000720309 4.64009 -0.000720309 4.48733 0.0220783 4.33456C0.0421629 4.19974 0.0421629 4.06437 0.023164 3.92955C0.000908166 3.77189 0.000908166 3.61532 0.023164 3.45712C0.0421629 3.32229 0.0421629 3.18693 0.0215355 3.0521C-0.00126313 2.90369 -0.00126313 2.75473 0.0193642 2.60631C0.0394487 2.46224 0.0329348 2.31926 0.0215355 2.17465C0.00633642 1.98873 -0.0365468 1.79682 0.0725611 1.62122C0.102959 1.61307 0.133357 1.59839 0.163213 1.59839C0.631128 1.59948 1.09904 1.60219 1.56696 1.60491L1.5675 1.60383Z" fill="black"/>
<path d="M1.57035 12.4674C1.57578 12.4658 1.57958 12.463 1.58284 12.4592C1.67186 12.4918 1.76306 12.4978 1.85751 12.4978C5.32996 12.4967 8.80241 12.4957 12.2749 12.4995C12.4904 12.4995 12.5267 12.4326 12.5267 12.2488C12.5246 8.75917 12.5251 5.26896 12.5262 1.77928C12.5262 1.71024 12.524 1.64555 12.479 1.58901C12.5224 1.58357 12.5658 1.57868 12.6092 1.57324C13.069 1.57487 13.5293 1.57596 13.9891 1.57759C13.9896 1.58575 13.9891 1.59336 13.9864 1.60097C13.9565 1.63467 13.9158 1.6412 13.8751 1.64174C13.4772 1.64555 13.0799 1.6499 12.6825 1.63957C12.6603 1.63902 12.6391 1.62761 12.6163 1.62869C12.6657 1.7097 12.6527 1.79994 12.6527 1.88693C12.6532 3.38902 12.6532 4.89112 12.6532 6.39322C12.6532 8.28457 12.6532 10.1754 12.6532 12.0667C12.6532 12.1526 12.6576 12.2391 12.6462 12.3244C12.638 12.3842 12.6635 12.419 12.7167 12.438C12.7314 12.4451 12.7433 12.456 12.7531 12.469C12.7639 12.5457 12.7091 12.5495 12.6592 12.5446C12.6049 12.5391 12.5609 12.5419 12.5376 12.5989C12.5066 12.649 12.5153 12.7044 12.5148 12.7582C12.5104 13.0931 12.5159 13.4275 12.5175 13.7624C12.518 13.9755 12.4925 13.9994 12.2863 13.9994C8.77961 13.9994 5.2735 13.9994 1.76686 13.9994C1.70877 13.9994 1.64852 14.0075 1.59532 13.9738C1.5405 13.9146 1.55027 13.8396 1.55081 13.7689C1.55461 13.3514 1.5557 12.9338 1.55461 12.5158C1.55461 12.4978 1.56058 12.4815 1.57144 12.4668L1.57035 12.4674Z" fill="black"/>
<path d="M12.7481 12.4686C12.7117 12.468 12.6759 12.4675 12.6395 12.467C12.5657 12.4659 12.5299 12.4479 12.5907 12.374C12.6221 12.3359 12.608 12.2865 12.608 12.2424C12.608 8.75221 12.608 5.26199 12.608 1.77178C12.608 1.71796 12.6167 1.66305 12.5673 1.60107H13.9852C13.989 2.07568 13.9949 2.54974 13.9955 3.02434C13.9971 4.34051 13.996 5.65668 13.9955 6.97231C13.9955 8.27489 13.9939 9.57747 13.9939 10.88C13.9939 11.3552 13.9911 11.8298 13.9987 12.3044C14.0004 12.4197 13.9662 12.4572 13.8554 12.4425C13.7936 12.4343 13.729 12.4403 13.666 12.4398C13.4429 12.4561 13.2203 12.4898 12.9961 12.4762C12.9131 12.4713 12.8279 12.5289 12.7475 12.4686H12.7481Z" fill="black"/>
<path d="M9.37444 3.19071C9.4146 3.14994 9.46617 3.15972 9.51503 3.15972C9.85755 3.16026 10.2001 3.16461 10.5426 3.17984C10.8981 3.1956 10.8987 3.1831 10.8987 3.53212C10.8987 4.35574 10.8987 5.17937 10.8987 6.003C10.8987 6.19545 10.8639 6.23296 10.6756 6.23296C9.78481 6.2335 8.89458 6.23133 8.0038 6.23568C7.88872 6.23622 7.84475 6.18294 7.84421 6.08563C7.84096 5.6605 7.84367 5.23482 7.84204 4.80915C7.84204 4.7151 7.89904 4.71292 7.96798 4.71346C8.37944 4.71455 8.7909 4.7151 9.20236 4.71238C9.23873 4.71238 9.28921 4.74119 9.31255 4.68302C9.35435 4.48622 9.33318 4.28724 9.3359 4.08881C9.33915 3.84961 9.3359 3.6104 9.33752 3.3712C9.33752 3.30868 9.3321 3.24344 9.37552 3.18962L9.37444 3.19071Z" fill="#FEFEFE"/>
<path d="M4.72144 4.62975C4.75618 4.20625 4.72904 3.78166 4.73664 3.35816C4.73989 3.15973 4.73718 3.15973 4.93097 3.15973C5.31095 3.15973 5.69092 3.16354 6.07036 3.15756C6.19792 3.15538 6.24515 3.19344 6.24406 3.32772C6.23918 4.24213 6.23918 5.15655 6.24406 6.07096C6.2446 6.20144 6.18544 6.23406 6.07524 6.23406C5.6817 6.23351 5.28869 6.23406 4.89514 6.23406C4.37512 6.23406 3.85509 6.23297 3.33506 6.23514C3.24984 6.23514 3.19556 6.21883 3.19556 6.11935C3.19719 5.67138 3.19664 5.22287 3.19719 4.77491C3.19719 4.75751 3.20587 4.74011 3.21076 4.72272C3.27752 4.67379 3.35569 4.6814 3.43169 4.68194C3.86215 4.68412 4.29315 4.68847 4.7209 4.62975H4.72144Z" fill="#FEFEFE"/>
<path d="M4.72151 4.62967C4.69057 4.70904 4.62163 4.70143 4.55595 4.70469C4.10812 4.7297 3.65974 4.71937 3.21137 4.72209C3.18097 4.52855 3.20268 4.33555 3.20866 4.14147C3.2168 3.87019 3.213 3.59837 3.2092 3.32709C3.20811 3.24065 3.2282 3.20803 3.32482 3.19118C3.74659 3.11778 4.17054 3.17813 4.59232 3.15421C4.69708 3.14823 4.72314 3.18791 4.72259 3.28577C4.71879 3.73319 4.72151 4.18116 4.72151 4.62858V4.62967Z" fill="black"/>
<path d="M9.37441 3.19071C9.37604 3.65825 9.37712 4.12579 9.38038 4.59332C9.38038 4.64443 9.37332 4.68303 9.31198 4.68411C8.87447 4.68248 8.43749 4.67813 7.99998 4.68139C7.89358 4.68248 7.84799 4.66074 7.8507 4.54113C7.85993 4.13068 7.86101 3.71968 7.85884 3.30923C7.8583 3.19235 7.89793 3.1532 8.0168 3.15483C8.41361 3.16136 8.81041 3.1581 9.20722 3.15646C9.26693 3.15646 9.3223 3.16353 9.37441 3.19126V3.19071Z" fill="black"/>
</g>
<defs>
<clipPath id="clip0_1397_3251">
<rect width="14" height="14" fill="white"/>
</clipPath>
</defs>
</svg>
