<svg width="14" height="14" viewBox="0 0 14 14" fill="none" xmlns="http://www.w3.org/2000/svg">
<g clip-path="url(#clip0_1397_3263)">
<path d="M12.3992 12.4951C12.1392 12.4923 11.8797 12.4869 11.6196 12.4864C9.42671 12.4847 7.23381 12.4918 5.04037 12.4804C3.93719 12.475 2.83455 12.4657 1.73137 12.4663C1.61131 12.4663 1.58062 12.4282 1.58062 12.3108C1.58331 8.74811 1.58331 5.18599 1.58008 1.62333C1.58008 1.50264 1.64469 1.51732 1.71522 1.51732C2.44152 1.51732 3.16836 1.51732 3.89466 1.51732C6.6841 1.51732 9.47355 1.51732 12.263 1.51623C12.3115 1.51623 12.3621 1.52765 12.4084 1.50101C12.4213 1.50047 12.4347 1.49938 12.4477 1.49829C12.4601 1.51025 12.4676 1.52439 12.4697 1.54178C12.4719 1.56788 12.4654 1.59289 12.4574 1.61735C12.4342 1.70652 12.4407 1.79731 12.4407 1.88756C12.4407 5.3268 12.4407 8.76659 12.4396 12.2058C12.4396 12.2955 12.4536 12.3874 12.4164 12.4739C12.4105 12.4809 12.4051 12.4875 12.3992 12.4945V12.4951Z" fill="#FE9000"/>
<path d="M6.31376 0H6.74502C6.88823 0.0168537 7.03145 0.0168537 7.1752 0C7.31895 0 7.46271 0 7.60646 0C7.74967 0.0168537 7.89289 0.0168537 8.03664 0C8.18039 0 8.32414 0 8.4679 0C8.61111 0.0168537 8.75433 0.0168537 8.89808 0C9.04183 0 9.18558 0 9.32934 0C9.47255 0.0168537 9.61576 0.0168537 9.75952 0H10.1908C10.3335 0.0168537 10.4767 0.0168537 10.6199 0H11.0511C11.1944 0.0168537 11.3376 0.0168537 11.4813 0H11.9126C12.0553 0.0173974 12.1979 0.0152227 12.3406 0.001631H12.3401C12.4084 0.0152227 12.4364 0.0614345 12.4354 0.127762C12.4284 0.54693 12.4494 0.966642 12.4321 1.38581C12.4311 1.41789 12.4235 1.44833 12.402 1.47334C12.3508 1.5114 12.2905 1.50324 12.2329 1.50324C8.74787 1.50379 5.26334 1.50379 1.77828 1.50324C1.58877 1.50324 1.56777 1.48204 1.56669 1.29447C1.56508 0.941633 1.56562 0.588249 1.56669 0.235408C1.56669 0.1631 1.56239 0.0886179 1.62646 0.0353384C1.63938 0.0228341 1.65338 0.0119607 1.66899 0.00217467C1.78151 0.0141354 1.89458 0.0173974 2.00764 0C2.1514 0 2.29515 0 2.4389 0C2.58211 0.0168537 2.72533 0.0168537 2.86908 0C3.01283 0 3.15659 0 3.30034 0C3.44355 0.0168537 3.58677 0.0168537 3.73052 0C3.87427 0 4.01803 0 4.16178 0C4.30499 0.0168537 4.44821 0.0168537 4.59196 0C4.73571 0 4.87946 0 5.02322 0C5.16643 0.0168537 5.30965 0.0168537 5.4534 0C5.59715 0 5.7409 0 5.88466 0C6.02787 0.0168537 6.17108 0.0168537 6.31484 0H6.31376Z" fill="black"/>
<path d="M12.3939 1.46514C12.3988 1.4771 12.4036 1.48906 12.4085 1.50102C12.3821 1.55539 12.3304 1.55647 12.282 1.56082C12.2147 1.5668 12.1474 1.56354 12.0801 1.56354C8.68114 1.56354 5.28169 1.56354 1.88277 1.56354C1.70833 1.56354 1.62111 1.65325 1.62111 1.83266C1.62111 5.2681 1.62111 8.70354 1.62111 12.139C1.62111 12.3278 1.71407 12.4222 1.9 12.4222C4.87735 12.4271 7.85416 12.4657 10.8315 12.45C11.2843 12.4472 11.7371 12.4489 12.1904 12.45C12.2615 12.45 12.3353 12.4413 12.3982 12.4886C12.4424 12.5375 12.4349 12.5978 12.4349 12.656C12.4354 13.0273 12.4359 13.3981 12.4349 13.7694C12.4349 13.9826 12.4182 13.9989 12.2028 13.9989C10.3556 13.9994 8.50778 13.9989 6.66053 13.9989C5.05987 13.9989 3.45867 13.9989 1.858 13.9989C1.81762 13.9989 1.77724 13.9989 1.73686 13.9989C1.56727 13.9951 1.54143 13.9717 1.54035 13.801C1.53766 13.4525 1.54035 13.104 1.53927 12.7555C1.53927 12.6881 1.54412 12.6185 1.49028 12.5647C1.37775 12.507 1.25661 12.5473 1.14032 12.5331C0.998181 12.538 0.855505 12.5369 0.713367 12.5331C0.536772 12.5402 0.360716 12.5359 0.184121 12.5304C0.144279 12.5293 0.104438 12.5272 0.071057 12.5005C-0.000550163 12.363 0.0339074 12.2091 0.0112946 12.0634C-0.00808776 11.9405 0.000526636 11.8122 0.0263698 11.6856C0.0457522 11.5888 0.044137 11.4855 0.0296002 11.3876C-0.00108856 11.1799 0.00483383 10.975 0.0290618 10.7673C0.0430602 10.6477 0.0349842 10.5248 0.0161402 10.4025C-0.00539576 10.2644 -0.00162696 10.1236 0.0204474 9.98333C0.0419834 9.84415 0.0403682 9.70443 0.0204474 9.56525C-0.00108856 9.41683 -0.00108856 9.26786 0.0204474 9.11944C0.0409066 8.97972 0.041445 8.84054 0.0204474 8.70082C-0.00162696 8.5524 -0.00162696 8.40343 0.0188322 8.25501C0.038753 8.11094 0.0398298 7.96741 0.0188322 7.82334C-0.00216536 7.67927 -0.00216536 7.53411 0.0177554 7.39058C0.038753 7.24161 0.038753 7.09482 0.0177554 6.94586C-0.00216536 6.80233 -0.00216536 6.65717 0.0193706 6.5131C0.0403682 6.36903 0.0398298 6.2255 0.0188322 6.08142C-0.00216536 5.93735 -0.00216536 5.79274 0.0188322 5.64866C0.0398298 5.50459 0.0409066 5.36106 0.019909 5.21699C-0.00108856 5.07292 -0.00216536 4.92776 0.0182938 4.78423C0.0392914 4.63527 0.0398298 4.48793 0.0182938 4.33951C-0.00162696 4.19598 -0.00216536 4.05082 0.0193706 3.90675C0.0403682 3.76268 0.0409066 3.61915 0.0193706 3.47508C-0.00162696 3.33536 -0.00270376 3.19455 0.0166786 3.05591C0.0382146 2.8977 0.0392914 2.74221 0.0166786 2.58401C-0.00216536 2.45407 -0.00270376 2.32142 0.0166786 2.19148C0.0398298 2.03816 0.0430602 1.88594 0.0193706 1.73317C0.00914103 1.66793 0.00914103 1.60649 0.0651346 1.55974C0.122743 1.52603 0.186813 1.53473 0.24819 1.53473C0.622916 1.53745 0.997642 1.53092 1.37183 1.507C1.40306 1.50483 1.43428 1.5032 1.46282 1.48906C1.47628 1.48036 1.49028 1.47221 1.5032 1.46296C1.55704 1.41186 1.54035 1.34607 1.53873 1.28464C1.5312 0.906791 1.54842 0.529485 1.55273 0.15218C1.55273 0.115754 1.55327 0.0798718 1.58234 0.0521448C1.60657 0.0385531 1.62326 0.00647664 1.6588 0.020612C1.60173 0.0978129 1.60496 0.186431 1.6055 0.27668C1.60711 0.620278 1.61142 0.96442 1.60334 1.30802C1.60011 1.43306 1.63618 1.46677 1.76055 1.46677C4.8262 1.46351 7.89185 1.46405 10.9575 1.46405C11.4372 1.46405 11.9164 1.46405 12.3961 1.46405L12.3939 1.46514Z" fill="black"/>
<path d="M1.52304 7.03225C1.52304 8.7883 1.52304 10.5443 1.52304 12.3009C1.52304 12.4619 1.45035 12.526 1.31521 12.4564C1.22692 12.4108 1.14454 12.4157 1.05786 12.414C0.905493 12.4108 0.752587 12.4167 0.600759 12.4118C0.467236 12.4075 0.350403 12.4923 0.210957 12.4717C0.127506 12.4597 0.084972 12.4428 0.0962784 12.3531C0.0989704 12.3308 0.0962784 12.308 0.0962784 12.2852C0.0962784 8.78667 0.0962784 5.28762 0.0962784 1.78912C0.0962784 1.66371 0.159451 1.60101 0.285795 1.60101C0.649215 1.60101 1.0121 1.6059 1.37552 1.59829C1.49504 1.59557 1.52573 1.63091 1.52519 1.75052C1.52142 3.51146 1.5225 5.27185 1.5225 7.0328L1.52304 7.03225Z" fill="black"/>
<path d="M12.7735 12.4957C12.648 12.4957 12.522 12.4968 12.3966 12.4974C12.3987 11.7737 12.4025 11.0501 12.4025 10.3265C12.402 8.49923 12.3993 6.67142 12.3971 4.84415C12.396 3.80357 12.3939 2.76354 12.3939 1.72295C12.3939 1.66478 12.3659 1.59193 12.4461 1.55768C12.8155 1.52452 13.1853 1.5343 13.5552 1.53648C13.58 1.53648 13.6053 1.53648 13.6301 1.53648C13.8707 1.53485 13.924 1.56583 13.9919 1.74796C14.0048 1.88986 13.9983 2.03176 13.9967 2.17366C14.0005 2.31773 14.001 2.4618 13.9967 2.60587C14.0005 2.75049 14.001 2.89565 13.9967 3.04026C14.0005 3.18488 14.001 3.33004 13.9967 3.47465C14.0005 3.61927 14.001 3.76443 13.9967 3.90904C14.0005 4.0542 14.001 4.19882 13.9967 4.34343C14.0005 4.48859 14.001 4.63321 13.9967 4.77783C14.0005 4.92298 14.001 5.0676 13.9967 5.21222C14.0005 5.35738 14.001 5.50199 13.9967 5.64661C14.0005 5.79177 14.001 5.93638 13.9967 6.081C14.0005 6.22616 14.001 6.37077 13.9967 6.51539C14.0005 6.66055 14.001 6.80516 13.9967 6.94978C14.0005 7.09494 14.001 7.23956 13.9967 7.38417C14.0005 7.52933 14.001 7.67395 13.9967 7.81856C14.0005 7.96372 14.001 8.10834 13.9967 8.25295C14.0005 8.39811 14.001 8.54273 13.9967 8.68734C14.0005 8.8325 14.001 8.97712 13.9967 9.12173C14.0005 9.26689 14.001 9.41151 13.9967 9.55613C14.0005 9.70129 14.001 9.8459 13.9967 9.99052C14.0005 10.1357 14.001 10.2803 13.9967 10.4249C14.0005 10.5695 14.001 10.7147 13.9967 10.8593C14.0005 11.0039 14.001 11.1491 13.9967 11.2937C14.0005 11.4383 14.001 11.5829 13.9967 11.7281C14.0005 11.8722 14.001 12.0168 13.9967 12.1608C13.9967 12.1875 13.9994 12.2147 13.9989 12.2413C13.9946 12.4664 13.9316 12.5305 13.713 12.5322C13.686 12.5322 13.6597 12.5305 13.6333 12.53C13.4895 12.5343 13.3463 12.5338 13.2026 12.53C13.0594 12.5202 12.9108 12.568 12.7729 12.4908L12.7735 12.4957Z" fill="black"/>
<path d="M9.34612 4.68866C9.37088 4.75064 9.42311 4.71639 9.46026 4.71639C9.86352 4.71911 10.2673 4.72074 10.6711 4.71639C10.7578 4.7153 10.7863 4.73868 10.7858 4.82893C10.7826 5.22254 10.788 5.61616 10.788 6.00978C10.788 6.18701 10.7783 6.19734 10.6081 6.19734C9.72461 6.19843 8.84164 6.19571 7.95812 6.20006C7.82945 6.2006 7.77238 6.14461 7.77345 6.00651C7.7783 5.13284 7.77561 4.25971 7.77614 3.38603C7.77614 3.22239 7.83752 3.15552 8.00012 3.15987C8.42438 3.17074 8.84864 3.18651 9.27289 3.20064C9.3262 3.25066 9.31166 3.31699 9.3122 3.37788C9.31381 3.74159 9.3122 4.10476 9.31327 4.46848C9.31327 4.5261 9.30628 4.58591 9.33427 4.64027C9.34235 4.6555 9.34612 4.67126 9.34719 4.68866H9.34612Z" fill="#FEFEFE"/>
<path d="M4.72703 4.68809C4.75125 4.74572 4.80133 4.7169 4.83794 4.7169C5.23689 4.71908 5.63638 4.72179 6.03534 4.71636C6.13494 4.71473 6.17101 4.74191 6.16348 4.84521C6.1344 5.23284 6.20278 5.6183 6.19686 6.00594C6.19417 6.17611 6.17909 6.1935 6.01219 6.19405C5.12867 6.19405 4.24516 6.19242 3.36165 6.19622C3.23189 6.19677 3.1899 6.14947 3.19043 6.0217C3.19367 5.12085 3.19367 4.21999 3.19043 3.31913C3.19043 3.19952 3.21843 3.15005 3.34872 3.15657C3.79936 3.17995 4.25108 3.193 4.70226 3.20985C4.73779 3.24465 4.74156 3.29032 4.7421 3.33544C4.74533 3.7508 4.74533 4.16616 4.7421 4.58153C4.7421 4.61795 4.72595 4.6522 4.72757 4.68863L4.72703 4.68809Z" fill="#FEFEFE"/>
<path d="M4.72725 4.68795C4.69225 4.6624 4.69871 4.62434 4.69871 4.58955C4.69925 4.1296 4.70087 3.66966 4.70194 3.20972C5.14074 3.21135 5.57899 3.21352 6.01779 3.21298C6.12062 3.21298 6.15939 3.2543 6.15885 3.35923C6.1567 3.761 6.15777 4.16331 6.16477 4.56563C6.16639 4.66185 6.1357 4.68686 6.0431 4.68578C5.60484 4.68306 5.16604 4.68686 4.72779 4.68849L4.72725 4.68795Z" fill="black"/>
<path d="M10.7803 3.31358C10.7814 3.73329 10.7803 4.15246 10.7852 4.57217C10.7863 4.66133 10.7599 4.68579 10.6727 4.68525C10.2306 4.68253 9.78807 4.68688 9.34605 4.68851C9.33582 4.67438 9.32559 4.66079 9.31536 4.64665C9.28628 4.52215 9.30351 4.39602 9.30244 4.27098C9.29974 3.95619 9.29974 3.64141 9.30297 3.32662C9.30351 3.27443 9.27498 3.18962 9.3832 3.20158L9.38104 3.20539C9.42788 3.22876 9.47795 3.21789 9.52641 3.2168C9.8936 3.20865 10.2602 3.23855 10.6274 3.2304C10.6958 3.22876 10.7518 3.2429 10.7803 3.31303V3.31358Z" fill="black"/>
</g>
<defs>
<clipPath id="clip0_1397_3263">
<rect width="14" height="14" fill="white"/>
</clipPath>
</defs>
</svg>
