<svg width="14" height="14" viewBox="0 0 14 14" fill="none" xmlns="http://www.w3.org/2000/svg">
<g clip-path="url(#clip0_1397_3278)">
<path d="M1.55338 0.0547913C1.63214 -0.0162746 1.73409 0.0260394 1.82148 0C1.96551 0 2.10954 0 2.25357 0C2.39706 0.0168171 2.54055 0.0168171 2.68458 0C2.82861 0 2.97264 0 3.11667 0C3.26016 0.0168171 3.40365 0.0168171 3.54768 0C3.69171 0 3.83574 0 3.97977 0C4.12326 0.0168171 4.26675 0.0168171 4.41078 0C4.55481 0 4.69884 0 4.84287 0C4.98636 0.0168171 5.12985 0.0168171 5.27388 0C5.41791 0 5.56193 0 5.70596 0C5.84945 0.0168171 5.99294 0.0168171 6.13697 0C6.281 0 6.42503 0 6.56906 0C6.71255 0.0168171 6.85604 0.0168171 7.00007 0C7.1441 0 7.28813 0 7.43216 0C7.57565 0.0168171 7.71914 0.0168171 7.86317 0C8.0072 0 8.15123 0 8.29526 0C8.43875 0.0168171 8.58224 0.0168171 8.72627 0C8.8703 0 9.01433 0 9.15836 0C9.30185 0.0168171 9.44534 0.0168171 9.58937 0C9.7334 0 9.87743 0 10.0215 0C10.1649 0.0168171 10.3084 0.0168171 10.4525 0C10.5965 0 10.7405 0 10.8846 0C11.028 0.0168171 11.1715 0.0168171 11.3156 0C11.4596 0 11.6036 0 11.7477 0C11.8911 0.0168171 12.0346 0.0168171 12.1787 0C12.2396 0 12.3006 0.00108498 12.3615 0.00162747C12.4527 0.0320068 12.4613 0.107955 12.4619 0.187159C12.4635 0.407409 12.4565 0.628202 12.4592 0.848452C12.4597 0.907041 12.4576 0.965629 12.4764 1.02205C12.4926 1.11319 12.4894 1.20541 12.4872 1.29763C12.4861 1.37412 12.5007 1.45333 12.4538 1.52331C12.4398 1.5347 12.4241 1.54229 12.4063 1.54718C11.9305 1.56399 11.4542 1.55097 10.9779 1.55477C10.8026 1.5564 10.6267 1.56671 10.4525 1.55314C9.00084 1.44085 7.54706 1.52114 6.0949 1.50649C4.64381 1.49184 3.19273 1.49944 1.74164 1.50052C1.67529 1.50052 1.60517 1.50975 1.55122 1.45387C1.51616 1.4083 1.514 1.35514 1.51508 1.30089C1.51077 1.15604 1.51077 1.0112 1.51508 0.866354C1.5113 0.722052 1.51077 0.577208 1.51508 0.432906C1.52479 0.306506 1.47786 0.174139 1.55554 0.0547913H1.55338Z" fill="black"/>
<path d="M12.4183 1.51929C12.4247 1.52309 12.4301 1.52743 12.4361 1.53231C12.4846 1.53828 12.5154 1.56215 12.5191 1.61423C12.5165 2.80716 12.538 4.00009 12.5138 5.19194C12.4663 7.53169 12.5073 9.87145 12.4911 12.2112C12.4889 12.5074 12.4657 12.5324 12.1647 12.5324C8.71288 12.5324 5.26157 12.5324 1.80971 12.5318C1.71747 12.5318 1.61821 12.5519 1.54161 12.4732C1.50331 12.4119 1.50871 12.343 1.50871 12.2758C1.50817 8.77616 1.50817 5.27657 1.50871 1.77643C1.50871 1.53557 1.55564 1.48891 1.79137 1.48891C2.53256 1.48837 3.27374 1.48023 4.01493 1.49054C5.99142 1.51712 7.96792 1.48078 9.94388 1.50899C10.7201 1.52038 11.4958 1.52038 12.2721 1.52906C12.3206 1.5296 12.3708 1.53936 12.4188 1.51875L12.4183 1.51929Z" fill="#FEE401"/>
<path d="M12.4183 1.51974C12.3854 1.57779 12.3293 1.55066 12.285 1.55066C11.6382 1.55283 10.9909 1.56151 10.3441 1.55012C9.1045 1.52734 7.86488 1.54524 6.62579 1.53927C5.01827 1.53168 3.41021 1.52788 1.80269 1.52245C1.74928 1.52245 1.69534 1.51432 1.64302 1.53602C1.5853 1.55934 1.54106 1.58918 1.55131 1.6635C1.55617 1.69876 1.55239 1.73565 1.55239 1.772C1.55239 5.24447 1.55239 8.71748 1.55239 12.1899C1.55239 12.28 1.55509 12.3701 1.55671 12.4606C1.56156 12.5225 1.51733 12.5171 1.47795 12.5187C1.45421 12.5149 1.43264 12.504 1.41268 12.491C1.37977 12.4661 1.34363 12.452 1.30155 12.452C1.06096 12.4503 0.820375 12.4503 0.580326 12.452C0.543104 12.452 0.511278 12.4666 0.48053 12.4851C0.442769 12.5013 0.402851 12.5062 0.362393 12.5051C0.272307 12.5002 0.181142 12.5165 0.0932143 12.4878C0.00420725 12.4465 0.00582555 12.3646 0.00366781 12.2843C0.0020495 12.2361 0.00258893 12.1872 0.00474668 12.139C0.000970623 11.9957 0.000970623 11.852 0.00474668 11.7082C0.000970623 11.5639 0.000431186 11.4196 0.00474668 11.2753C0.000970623 11.131 0.000431186 10.9862 0.00474668 10.8419C0.000970623 10.6976 0.000431186 10.5527 0.00474668 10.4084C0.000970623 10.2636 0.000431186 10.1193 0.00474668 9.97497C0.000970623 9.83012 0.000431186 9.68582 0.00474668 9.54152C0.000970623 9.39667 0.000431186 9.25237 0.00474668 9.10807C0.000970623 8.96323 0.000431186 8.81892 0.00474668 8.67462C0.000970623 8.52978 0.000431186 8.38548 0.00474668 8.24117C0.000970623 8.09633 0.000431186 7.95203 0.00474668 7.80773C0.000970623 7.66288 0.000431186 7.51858 0.00474668 7.37428C0.000970623 7.22943 0.000431186 7.08513 0.00474668 6.94083C0.000970623 6.79598 0.000431186 6.65168 0.00474668 6.50738C0.000970623 6.36254 0.000431186 6.21823 0.00474668 6.07393C0.000970623 5.92909 0.000431186 5.78479 0.00474668 5.64048C0.000970623 5.49564 0.000431186 5.35134 0.00474668 5.20704C0.000970623 5.06219 0.000431186 4.91789 0.00474668 4.77359C0.000970623 4.62874 0.000431186 4.48444 0.00474668 4.34014C0.000970623 4.19529 0.000431186 4.05099 0.00474668 3.90669C0.000970623 3.76239 0.000431186 3.61754 0.00474668 3.47324C0.000970623 3.32894 0.000431186 3.1841 0.00474668 3.03979C0.000970623 2.89549 0.000431186 2.75065 0.00474668 2.60635C0.000970623 2.46259 0.000431186 2.31828 0.00474668 2.17453C0.0020495 2.03131 0.000431186 1.88863 0.00582555 1.74542C0.00528612 1.66459 0.0128382 1.58755 0.101845 1.55175C0.243717 1.51866 0.387207 1.53764 0.530158 1.53547C0.67203 1.53168 0.813362 1.53113 0.954695 1.53547C1.08901 1.53276 1.22333 1.5333 1.35711 1.53547C1.44936 1.55663 1.50007 1.4899 1.55832 1.43945C1.61497 1.47851 1.6797 1.46604 1.74119 1.46604C4.49771 1.46604 7.25424 1.46604 10.0102 1.46604C10.8113 1.57725 11.6167 1.49207 12.4199 1.52354L12.4183 1.51974Z" fill="black"/>
<path d="M12.4808 1.58183C12.5234 1.57803 12.566 1.57423 12.6086 1.57043C12.7456 1.49232 12.894 1.5406 13.0369 1.53083C13.1799 1.52758 13.3234 1.52649 13.4663 1.53083C13.6093 1.53409 13.7538 1.51239 13.8957 1.54819C13.9383 1.56826 13.968 1.59973 13.9836 1.64475C14.002 1.72938 13.9944 1.81564 13.9944 1.90081C13.9944 5.24959 13.9944 8.59837 13.9944 11.9472C13.9944 12.0508 14.0009 12.1544 13.9998 12.2585C13.9971 12.4625 13.9545 12.5032 13.7538 12.5054C13.7226 12.5054 13.6907 12.5054 13.6594 12.5054C13.626 12.5054 13.5926 12.5054 13.5602 12.4956C13.2543 12.4826 12.9501 12.4311 12.6431 12.4582C12.6216 12.4603 12.6016 12.4739 12.5811 12.482C12.5191 12.5027 12.4732 12.5352 12.4862 12.6117C12.4872 12.7462 12.4894 12.8802 12.4862 13.0148C12.4905 13.158 12.4899 13.3007 12.4862 13.4439C12.4851 13.5898 12.5023 13.7363 12.4727 13.8811C12.4166 13.9956 12.3141 14.0081 12.2078 13.9902C12.0422 13.962 11.8788 13.9679 11.7126 13.9891C11.5751 14.0064 11.4353 14.0048 11.2962 13.982C11.1629 13.9603 11.0281 13.9625 10.8937 13.982C10.7416 14.0043 10.59 14.0037 10.4379 13.982C10.2998 13.9625 10.1612 13.9625 10.0226 13.9831C9.87529 14.0048 9.72749 14.0043 9.57968 13.9831C9.44105 13.9625 9.30295 13.9625 9.16432 13.9831C9.01651 14.0054 8.8687 14.0048 8.72144 13.9842C8.57849 13.9641 8.43608 13.9641 8.29258 13.9853C8.14963 14.0064 8.00614 13.9918 7.86265 13.9885C7.42949 13.9793 6.99632 13.9782 6.56315 13.9885C6.41966 13.9918 6.27617 14.0059 6.13322 13.9847C5.99027 13.9636 5.84786 13.9636 5.70491 13.9847C5.56196 14.0059 5.41847 13.9918 5.27498 13.9885C4.84181 13.9788 4.40864 13.9788 3.97547 13.9885C3.83198 13.9918 3.68849 14.0059 3.54554 13.9847C3.40259 13.9636 3.26018 13.9647 3.11723 13.9847C2.96996 14.0054 2.82216 14.0054 2.67435 13.9831C2.53572 13.9625 2.39762 13.9652 2.25899 13.9831C2.02163 14.014 1.78644 13.9988 1.55448 13.9386C1.54369 13.9213 1.54585 13.9061 1.56096 13.8925C1.64457 13.8448 1.73627 13.8616 1.82474 13.8616C5.22535 13.8605 8.6265 13.8611 12.0271 13.8611C12.0854 13.8611 12.1436 13.8605 12.2024 13.8594C12.2796 13.8583 12.3179 13.822 12.3184 13.7439C12.3216 13.3918 12.3206 13.0392 12.3195 12.6871C12.3195 12.6101 12.2866 12.5699 12.2067 12.5688C12.1485 12.5683 12.0902 12.5672 12.0314 12.5672C8.6443 12.5672 5.25664 12.5672 1.86951 12.5672C1.77511 12.5672 1.68071 12.5699 1.58685 12.5645C1.56149 12.5607 1.5356 12.5591 1.51133 12.5509C1.48813 12.5401 1.46547 12.5287 1.47249 12.4956C1.50485 12.4956 1.53776 12.4983 1.55502 12.4614C1.62299 12.4864 1.69366 12.4896 1.76594 12.4896C5.24477 12.4891 8.72306 12.4891 12.2019 12.4891C12.2111 12.4891 12.2197 12.4891 12.2289 12.4891C12.3756 12.4887 12.4489 12.4168 12.4489 12.2732C12.4489 10.0821 12.4371 7.89097 12.4533 5.69986C12.463 4.37184 12.456 3.04437 12.4651 1.71636C12.4651 1.67188 12.4748 1.6274 12.4797 1.58345L12.4808 1.58183Z" fill="black"/>
<path d="M4.6062 4.69979C4.21241 4.67267 3.81808 4.69382 3.42429 4.6884C3.16914 4.68514 3.16914 4.68786 3.16914 4.43126C3.16914 4.06074 3.17238 3.69076 3.16752 3.32024C3.1659 3.19873 3.21229 3.15044 3.33097 3.15099C4.23399 3.15261 5.137 3.15316 6.04002 3.1499C6.14845 3.1499 6.19646 3.19818 6.20833 3.29692C6.21318 3.33706 6.21426 3.37775 6.21426 3.41843C6.21426 4.29021 6.21156 5.16145 6.2175 6.03323C6.21858 6.17265 6.15492 6.2193 6.0384 6.22093C5.62519 6.22635 5.21199 6.22635 4.79878 6.23069C4.75562 6.23069 4.7211 6.21659 4.68711 6.19543C4.62346 6.1401 4.63857 6.06361 4.63803 5.99363C4.63587 5.65132 4.63641 5.30901 4.63749 4.96724C4.63749 4.87664 4.63101 4.78767 4.60674 4.69979H4.6062Z" fill="#FEFEFE"/>
<path d="M8.47447 4.7007C8.30994 4.67195 8.14433 4.69202 7.97926 4.68877C7.80071 4.68497 7.80017 4.68768 7.80017 4.50161C7.80017 4.24447 7.79262 3.98733 7.80341 3.73073C7.8088 3.60271 7.75863 3.48607 7.76241 3.35967C7.76619 3.22134 7.81851 3.15515 7.95607 3.15298C8.11304 3.15081 8.27002 3.15244 8.42754 3.15244C9.14553 3.15244 9.86406 3.15244 10.582 3.15244C10.7892 3.15244 10.8237 3.18716 10.8237 3.39385C10.8237 4.27376 10.8205 5.15368 10.8264 6.0336C10.8275 6.20068 10.7671 6.2354 10.623 6.23269C10.2239 6.22401 9.82414 6.22564 9.42495 6.22347C9.38018 6.22347 9.33487 6.22781 9.30412 6.18387C9.27283 6.12528 9.27607 6.06181 9.27553 5.99888C9.27553 5.71895 9.27769 5.43903 9.27499 5.15911C9.27068 4.69799 9.33163 4.76634 8.87095 4.75929C8.78572 4.75821 8.69995 4.76255 8.61526 4.75712C8.56401 4.75387 8.50414 4.76363 8.47447 4.70179V4.7007Z" fill="#FEFEFE"/>
<path d="M4.60603 4.69971C4.69504 4.70676 4.67777 4.77403 4.67831 4.83045C4.68155 5.28559 4.68371 5.7402 4.68694 6.19535C4.64487 6.26045 4.57852 6.23224 4.52673 6.22681C4.15937 6.1883 3.79202 6.21867 3.42466 6.20891C3.39337 6.20782 3.36155 6.21054 3.33026 6.20728C3.22237 6.19589 3.16573 6.16009 3.16951 6.02501C3.18084 5.62411 3.17382 5.22212 3.16681 4.82068C3.16519 4.72466 3.19432 4.70079 3.28711 4.70188C3.72675 4.70513 4.16639 4.70133 4.60603 4.69971Z" fill="black"/>
<path d="M8.47438 4.70074C8.70634 4.72569 8.93937 4.70996 9.17187 4.70996C9.27167 4.70996 9.31266 4.73274 9.31051 4.84558C9.30241 5.29097 9.30511 5.73689 9.30403 6.18282C9.18643 6.21808 9.0656 6.20831 8.94585 6.20831C8.60978 6.20886 8.27317 6.2056 7.9371 6.21048C7.8427 6.21157 7.80116 6.19204 7.80278 6.08463C7.80871 5.66094 7.80763 5.23726 7.80278 4.81358C7.8017 4.7284 7.83299 4.70291 7.90959 4.70291C8.09785 4.70345 8.28612 4.70128 8.47438 4.7002V4.70074Z" fill="black"/>
<path d="M1.54432 12.5253C1.60258 12.5242 1.66083 12.5215 1.71963 12.5215C5.20601 12.5215 8.69185 12.5215 12.1782 12.5215C12.3034 12.5215 12.366 12.5846 12.366 12.7108C12.366 13.0585 12.3611 13.4063 12.3687 13.754C12.3713 13.8723 12.3401 13.907 12.2192 13.9065C11.1231 13.9016 10.027 13.9037 8.93082 13.9037C6.47315 13.9037 4.01601 13.9037 1.55834 13.9037C1.54378 13.894 1.53353 13.8815 1.52705 13.8652C1.49846 13.7242 1.51627 13.5815 1.51357 13.4394C1.50925 13.2956 1.50979 13.1524 1.51357 13.0086C1.52112 12.847 1.4812 12.6826 1.54486 12.5247L1.54432 12.5253Z" fill="black"/>
</g>
<defs>
<clipPath id="clip0_1397_3278">
<rect width="14" height="14" fill="white"/>
</clipPath>
</defs>
</svg>
