<svg width="149" height="13" viewBox="0 0 149 13" fill="none" xmlns="http://www.w3.org/2000/svg">
<path fill-rule="evenodd" clip-rule="evenodd" d="M8.49339 6.08399L12.047 9.6376L9.6376 12.047L6.08399 8.49339L2.53038 12.047L0.120982 9.6376L3.67459 6.08399L0 2.4094L2.4094 0L6.08399 3.67459L9.75858 0L12.168 2.4094L8.49339 6.08399Z" fill="white"/>
<mask id="path-2-inside-1_1361_919" fill="white">
<path fill-rule="evenodd" clip-rule="evenodd" d="M26.4935 6.08387L30.0471 9.63748L27.6377 12.0469L24.0841 8.49327L20.5304 12.0469L18.121 9.63748L21.6747 6.08387L18.0001 2.40927L20.4095 -0.000125705L24.0841 3.67447L27.7586 -0.000125705L30.168 2.40927L26.4935 6.08387Z"/>
</mask>
<path d="M30.0471 9.63748L30.1885 9.7789L30.3299 9.63748L30.1885 9.49605L30.0471 9.63748ZM26.4935 6.08387L26.352 5.94244L26.2106 6.08387L26.352 6.22529L26.4935 6.08387ZM27.6377 12.0469L27.4962 12.1883L27.6377 12.3297L27.7791 12.1883L27.6377 12.0469ZM24.0841 8.49327L24.2255 8.35184L24.0841 8.21042L23.9426 8.35184L24.0841 8.49327ZM20.5304 12.0469L20.389 12.1883L20.5304 12.3297L20.6719 12.1883L20.5304 12.0469ZM18.121 9.63748L17.9796 9.49605L17.8382 9.63748L17.9796 9.7789L18.121 9.63748ZM21.6747 6.08387L21.8161 6.22529L21.9575 6.08387L21.8161 5.94244L21.6747 6.08387ZM18.0001 2.40927L17.8586 2.26785L17.7172 2.40927L17.8586 2.5507L18.0001 2.40927ZM20.4095 -0.000125705L20.5509 -0.141547L20.4095 -0.282968L20.268 -0.141547L20.4095 -0.000125705ZM24.0841 3.67447L23.9426 3.81589L24.0841 3.95731L24.2255 3.81589L24.0841 3.67447ZM27.7586 -0.000125705L27.9001 -0.141547L27.7586 -0.282968L27.6172 -0.141547L27.7586 -0.000125705ZM30.168 2.40927L30.3095 2.5507L30.4509 2.40927L30.3095 2.26785L30.168 2.40927ZM30.1885 9.49605L26.6349 5.94244L26.352 6.22529L29.9056 9.7789L30.1885 9.49605ZM27.7791 12.1883L30.1885 9.7789L29.9056 9.49605L27.4962 11.9055L27.7791 12.1883ZM23.9426 8.63469L27.4962 12.1883L27.7791 11.9055L24.2255 8.35184L23.9426 8.63469ZM23.9426 8.35184L20.389 11.9055L20.6719 12.1883L24.2255 8.63469L23.9426 8.35184ZM20.6719 11.9055L18.2625 9.49605L17.9796 9.7789L20.389 12.1883L20.6719 11.9055ZM18.2625 9.7789L21.8161 6.22529L21.5332 5.94244L17.9796 9.49605L18.2625 9.7789ZM17.8586 2.5507L21.5332 6.22529L21.8161 5.94244L18.1415 2.26785L17.8586 2.5507ZM20.268 -0.141547L17.8586 2.26785L18.1415 2.5507L20.5509 0.141296L20.268 -0.141547ZM24.2255 3.53304L20.5509 -0.141547L20.268 0.141296L23.9426 3.81589L24.2255 3.53304ZM24.2255 3.81589L27.9001 0.141296L27.6172 -0.141547L23.9426 3.53304L24.2255 3.81589ZM27.6172 0.141296L30.0266 2.5507L30.3095 2.26785L27.9001 -0.141547L27.6172 0.141296ZM30.0266 2.26785L26.352 5.94244L26.6349 6.22529L30.3095 2.5507L30.0266 2.26785Z" fill="white" mask="url(#path-2-inside-1_1361_919)"/>
<path fill-rule="evenodd" clip-rule="evenodd" d="M39.7202 5.91713L36 9.63736L38.4094 12.0468L42.1296 8.32653L45.85 12.0469L48.2594 9.63748L44.539 5.91713L48.047 2.40916L45.6376 -0.000244141L42.1296 3.50773L38.6218 -0.000118435L36.2124 2.40928L39.7202 5.91713Z" fill="white"/>
<path d="M148.177 6.56569C148.274 6.46806 148.274 6.30977 148.177 6.21214L146.586 4.62115C146.488 4.52352 146.33 4.52352 146.232 4.62115C146.135 4.71878 146.135 4.87707 146.232 4.9747L147.646 6.38892L146.232 7.80313C146.135 7.90076 146.135 8.05905 146.232 8.15668C146.33 8.25431 146.488 8.25431 146.586 8.15668L148.177 6.56569ZM59.4075 6.63892H148V6.13892H59.4075V6.63892Z" fill="white"/>
</svg>
