<svg width="129" height="35" viewBox="0 0 129 35" fill="none" xmlns="http://www.w3.org/2000/svg">
<path d="M32.0288 28.3822L30.4087 25.6366H7.12691L18.7859 5.34171L15.7416 0H11.813C10.9694 0.00190333 10.1414 0.229063 9.41363 0.658266C8.68582 1.08747 8.08435 1.70334 7.67054 2.44297L0.625112 14.9495C0.21546 15.6714 0 16.4883 0 17.3195C0 18.1508 0.21546 18.9677 0.625112 19.6896L5.55763 28.4405L7.67054 32.1888C8.0327 32.8317 8.53788 33.3816 9.14653 33.7953C9.75518 34.209 10.4507 34.4753 11.1788 34.5734C11.3877 34.6028 11.5984 34.6174 11.8094 34.6172H25.7444C26.5878 34.6177 27.4161 34.3932 28.1451 33.9666C28.8741 33.54 29.4776 32.9266 29.8941 32.1888L31.9925 28.4405L32.0288 28.3822Z" fill="#000515"/>
<path d="M32.0688 28.382L32.0289 28.4513L29.9269 32.185C29.5121 32.9227 28.91 33.5363 28.1822 33.9629C27.4543 34.3896 26.6268 34.6141 25.7844 34.6134H11.8494C11.6384 34.6136 11.4277 34.599 11.2188 34.5697C10.4896 34.4724 9.79266 34.2064 9.18271 33.7927C8.57279 33.3789 8.06642 32.8287 7.70331 32.185L5.59766 28.4404L7.2068 25.6401L7.29016 25.589L15.1039 20.8489C16.3108 20.0614 17.2132 19.5983 18.0685 19.4524C18.0878 19.4507 18.1072 19.4507 18.1265 19.4524L18.2932 19.4306L18.5831 19.4087H18.7571C18.8965 19.4125 19.0356 19.4235 19.1739 19.4415C20.0618 19.5618 21.0114 20.0103 22.3088 20.7614L30.4053 25.6073L30.4524 25.6364L32.0688 28.382Z" fill="#000515"/>
<path d="M36.9725 19.6896L32.0326 28.4405L32.0725 28.3712L30.4489 25.6366L18.8514 5.31619V5.34171L15.7817 0H25.7881C26.6321 0.00238827 27.4605 0.229712 28.1887 0.658835C28.917 1.08796 29.5193 1.70355 29.9342 2.44297L36.9725 14.9495C37.3802 15.672 37.5948 16.4886 37.5948 17.3195C37.5948 18.1504 37.3802 18.9671 36.9725 19.6896Z" fill="#000515"/>
<path d="M0.625112 19.6896L5.5685 28.4405L5.52864 28.3712L7.14865 25.6256L18.7461 5.30525V5.33077L21.823 0H11.813C10.9694 0.00190333 10.1414 0.229063 9.41363 0.658266C8.68582 1.08747 8.08435 1.70334 7.67054 2.44297L0.625112 14.9495C0.21546 15.6714 0 16.4883 0 17.3195C0 18.1508 0.21546 18.9677 0.625112 19.6896Z" fill="#000515"/>
<path d="M45.8137 28.1965L53.352 6.90253H57.3242L64.8625 28.1965H60.7454L59.4407 24.4044H51.2355L49.9308 28.1965H45.8137ZM55.3526 12.5323L52.5692 20.6123H58.136L55.3526 12.5323ZM69.2637 28.1965L62.7982 11.1321H66.8862L71.2643 23.1501L75.5553 11.1321H79.5854L73.2068 28.1965H69.2637ZM88.1302 28.5465C82.7954 28.5465 79.1712 24.6377 79.1712 19.7081C79.1712 14.72 83.0273 10.7821 87.9852 10.7821C93.0301 10.7821 96.7123 14.5158 96.7123 19.5622V21.0499H82.9113C83.4622 23.471 85.3468 25.0753 88.1302 25.0753C90.3337 25.0753 92.0153 23.9085 92.8271 22.0708L96.0454 23.9377C94.5668 26.7088 91.9573 28.5465 88.1302 28.5465ZM87.9852 14.2533C85.6367 14.2533 83.8101 15.6535 83.1143 17.7537H92.7402C92.1603 15.4493 90.4207 14.2533 87.9852 14.2533ZM97.9731 26.1837C97.9731 24.7544 98.8719 23.7918 100.351 23.7918C101.829 23.7918 102.699 24.7544 102.699 26.1837C102.699 27.5839 101.8 28.5465 100.322 28.5465C98.8429 28.5465 97.9731 27.5839 97.9731 26.1837ZM112.268 28.5465C108.18 28.5465 103.918 25.2795 103.918 19.6789C103.918 14.02 108.035 10.7821 112.326 10.7821C114.558 10.7821 116.53 11.6864 117.776 13.174V11.1321H121.691V28.1965H117.776V25.9795C116.53 27.5839 114.5 28.5465 112.268 28.5465ZM112.906 24.9294C115.834 24.9294 117.979 22.5667 117.979 19.6205C117.979 16.7036 115.834 14.37 112.906 14.37C110.006 14.37 107.774 16.6744 107.774 19.6205C107.774 22.5959 110.006 24.9294 112.906 24.9294ZM123.92 28.1965V11.1321H127.863V28.1965H123.92ZM123.427 6.96087C123.427 5.47322 124.384 4.48145 125.892 4.48145C127.428 4.48145 128.356 5.47322 128.356 6.96087C128.356 8.44853 127.428 9.41113 125.892 9.41113C124.297 9.41113 123.427 8.44853 123.427 6.96087Z" fill="#000515"/>
</svg>
