<svg width="27" height="27" viewBox="0 0 27 27" fill="none" xmlns="http://www.w3.org/2000/svg">
<path d="M11.4929 1.16429C12.7341 0.444285 14.2659 0.444285 15.5071 1.16429L19.3387 3.38699L23.1795 5.59395C24.4236 6.30886 25.1895 7.63542 25.1866 9.07035L25.1775 13.5L25.1866 17.9297C25.1895 19.3646 24.4236 20.6911 23.1795 21.4061L19.3387 23.613L15.5071 25.8357C14.2659 26.5557 12.7341 26.5557 11.4929 25.8357L7.66125 23.613L3.82052 21.4061C2.57636 20.6911 1.81047 19.3646 1.81342 17.9297L1.8225 13.5L1.81342 9.07035C1.81047 7.63542 2.57636 6.30886 3.82052 5.59395L7.66125 3.38699L11.4929 1.16429Z" fill="#FFD54B"/>
<g clip-path="url(#clip0_1361_1076)">
<path d="M13.5 10.125L15.75 13.5L18.5625 11.25L17.4375 16.875H9.5625L8.4375 11.25L11.25 13.5L13.5 10.125Z" fill="white" stroke="white" stroke-width="1.5" stroke-linecap="round" stroke-linejoin="round"/>
</g>
<defs>
<clipPath id="clip0_1361_1076">
<rect width="13.5" height="13.5" fill="white" transform="translate(6.75 6.75)"/>
</clipPath>
</defs>
</svg>
