<svg width="345" height="71" viewBox="0 0 345 71" fill="none" xmlns="http://www.w3.org/2000/svg">
<path d="M77 16H344.5V41.9575H329.5V50.4436H308.5V62.424H45.5V53.4387H40V37.9641H55.5V29.4779H77V16Z" fill="#22DEAC"/>
<g opacity="0.5">
<path d="M192.099 61.9287L201.282 35.3288L206.167 35.3125L215.527 61.8505L210.464 61.8674L208.843 57.1413L198.752 57.175L197.163 61.9118L192.099 61.9287ZM203.766 42.345L200.376 52.4381L207.223 52.4152L203.766 42.345ZM220.94 61.8325L212.917 40.5674L217.945 40.5506L223.38 55.5277L228.607 40.515L233.564 40.4985L225.79 61.8163L220.94 61.8325ZM244.146 62.1917C237.584 62.2136 233.111 57.3515 233.09 51.2006C233.069 44.9769 237.796 40.0476 243.893 40.0272C250.098 40.0065 254.642 44.6501 254.663 50.9465L254.669 52.8027L237.696 52.8594C238.383 55.878 240.708 57.872 244.131 57.8606C246.841 57.8516 248.905 56.3888 249.895 54.0926L253.861 56.4087C252.054 59.8724 248.853 62.176 244.146 62.1917ZM243.908 44.3583C241.019 44.368 238.779 46.1225 237.932 48.7458L249.77 48.7063C249.048 45.8334 246.903 44.3483 243.908 44.3583ZM256.241 59.2032C256.236 57.4198 257.337 56.2151 259.156 56.209C260.974 56.2029 262.048 57.4004 262.054 59.1838C262.06 60.9308 260.958 62.1356 259.14 62.1417C257.321 62.1477 256.247 60.9503 256.241 59.2032ZM273.832 62.0926C268.804 62.1094 263.549 58.0506 263.525 51.0625C263.502 44.0017 268.552 39.9449 273.829 39.9273C276.575 39.9181 279.004 41.0383 280.543 42.8894L280.535 40.3416L285.349 40.3256L285.42 61.6172L280.606 61.6332L280.597 58.8672C279.07 60.874 276.578 62.0834 273.832 62.0926ZM274.602 57.5769C278.203 57.5649 280.832 54.608 280.82 50.932C280.808 47.2924 278.159 44.3896 274.558 44.4016C270.992 44.4135 268.256 47.2979 268.268 50.9739C268.28 54.6863 271.036 57.5888 274.602 57.5769ZM288.162 61.608L288.091 40.3164L292.941 40.3002L293.012 61.5918L288.162 61.608ZM287.467 35.1138C287.461 33.2576 288.634 32.0162 290.488 32.01C292.378 32.0037 293.523 33.2374 293.529 35.0936C293.536 36.9498 292.399 38.1546 290.509 38.161C288.547 38.1675 287.474 36.97 287.467 35.1138Z" fill="#DDFFF6"/>
</g>
<path d="M61 60.4649L54 49.982H61L69.5 39L76 49.982L84 39L90 49.982L98 39L105.5 50.9804H96.5L90 60.4649L84 50.9804L76 60.4649L69.5 50.9804L61 60.4649Z" fill="#FFFFFD"/>
<path fill-rule="evenodd" clip-rule="evenodd" d="M331.63 25.9429L327.5 30.0659L330.3 32.8614L334.43 28.7384L338.559 32.8614L341.359 30.0659L337.23 25.9429L341.5 21.6795L338.7 18.884L334.43 23.1474L330.159 18.884L327.359 21.6795L331.63 25.9429Z" fill="white"/>
<path fill-rule="evenodd" clip-rule="evenodd" d="M307.352 36.8545L299.759 44.4353L304.907 49.5752L312.5 41.9944L320.093 49.5752L325.241 44.4353L317.648 36.8545L325.5 29.0156L320.352 23.8757L312.5 31.7146L304.648 23.8757L299.5 29.0156L307.352 36.8545Z" fill="white"/>
<path d="M151.794 38.2119V25.7139H149.957V22.7432H156.725V25.7139H154.888V38.2119H151.794ZM157.533 38.2119V25.0283H160.732V26.4961C160.885 25.9863 161.154 25.5879 161.541 25.3008C161.928 25.0137 162.414 24.8701 163 24.8701V27.498C162.742 27.498 162.435 27.5273 162.077 27.5859C161.72 27.6387 161.406 27.7148 161.137 27.8145C160.867 27.9082 160.732 28.0137 160.732 28.1309V38.2119H157.533ZM166.173 38.3525C165.44 38.3525 164.881 38.1826 164.494 37.8428C164.113 37.5029 163.853 37.0371 163.712 36.4453C163.571 35.8535 163.501 35.1826 163.501 34.4326C163.501 33.6299 163.58 32.9736 163.738 32.4639C163.896 31.9482 164.166 31.5264 164.547 31.1982C164.934 30.8701 165.464 30.5918 166.138 30.3633L168.089 29.6953V28.3418C168.089 27.6328 167.857 27.2783 167.395 27.2783C166.973 27.2783 166.762 27.5654 166.762 28.1396V28.9307H163.703C163.697 28.8838 163.694 28.8252 163.694 28.7549C163.694 28.6787 163.694 28.5938 163.694 28.5C163.694 27.1875 164.002 26.2588 164.617 25.7139C165.238 25.1631 166.22 24.8877 167.562 24.8877C168.265 24.8877 168.895 25.0137 169.451 25.2656C170.008 25.5117 170.447 25.8779 170.77 26.3643C171.098 26.8506 171.262 27.4512 171.262 28.166V38.2119H168.133V36.6475C167.98 37.1982 167.729 37.6201 167.377 37.9131C167.025 38.2061 166.624 38.3525 166.173 38.3525ZM167.412 35.9092C167.67 35.9092 167.846 35.8008 167.939 35.584C168.033 35.3672 168.08 35.1328 168.08 34.8809V31.207C167.646 31.3828 167.31 31.6055 167.069 31.875C166.829 32.1387 166.709 32.5283 166.709 33.0439V34.7402C166.709 35.5195 166.943 35.9092 167.412 35.9092ZM172.475 38.2119V25.0283H175.621V26.707C175.738 26.2031 175.955 25.7754 176.271 25.4238C176.594 25.0664 177.039 24.8877 177.607 24.8877C178.521 24.8877 179.184 25.1689 179.594 25.7314C180.01 26.2939 180.218 27.0645 180.218 28.043V38.2119H177.115V28.3682C177.115 28.1104 177.062 27.873 176.957 27.6562C176.852 27.4336 176.67 27.3223 176.412 27.3223C176.172 27.3223 175.993 27.4072 175.876 27.5771C175.765 27.7412 175.694 27.9492 175.665 28.2012C175.636 28.4473 175.621 28.6934 175.621 28.9395V38.2119H172.475ZM185.069 38.3525C182.468 38.3525 181.167 37.0342 181.167 34.3975V33.3516H184.331V34.8984C184.331 35.1973 184.39 35.4316 184.507 35.6016C184.624 35.7715 184.812 35.8564 185.069 35.8564C185.526 35.8564 185.755 35.5137 185.755 34.8281C185.755 34.2539 185.635 33.8262 185.395 33.5449C185.154 33.2578 184.861 32.9824 184.516 32.7188L182.837 31.4268C182.31 31.0166 181.908 30.583 181.633 30.126C181.357 29.6689 181.22 29.0332 181.22 28.2188C181.22 27.4629 181.398 26.8389 181.756 26.3467C182.119 25.8545 182.597 25.4883 183.188 25.248C183.786 25.0078 184.431 24.8877 185.122 24.8877C187.677 24.8877 188.954 26.1621 188.954 28.7109V28.957H185.702V28.4561C185.702 28.1924 185.655 27.9375 185.562 27.6914C185.474 27.4453 185.298 27.3223 185.034 27.3223C184.589 27.3223 184.366 27.5566 184.366 28.0254C184.366 28.5 184.554 28.8721 184.929 29.1416L186.88 30.5654C187.489 31.0049 187.999 31.5264 188.409 32.1299C188.825 32.7334 189.033 33.5361 189.033 34.5381C189.033 35.7803 188.679 36.7266 187.97 37.377C187.267 38.0273 186.3 38.3525 185.069 38.3525ZM192.399 38.3525C191.667 38.3525 191.107 38.1826 190.721 37.8428C190.34 37.5029 190.079 37.0371 189.938 36.4453C189.798 35.8535 189.728 35.1826 189.728 34.4326C189.728 33.6299 189.807 32.9736 189.965 32.4639C190.123 31.9482 190.393 31.5264 190.773 31.1982C191.16 30.8701 191.69 30.5918 192.364 30.3633L194.315 29.6953V28.3418C194.315 27.6328 194.084 27.2783 193.621 27.2783C193.199 27.2783 192.988 27.5654 192.988 28.1396V28.9307H189.93C189.924 28.8838 189.921 28.8252 189.921 28.7549C189.921 28.6787 189.921 28.5938 189.921 28.5C189.921 27.1875 190.229 26.2588 190.844 25.7139C191.465 25.1631 192.446 24.8877 193.788 24.8877C194.491 24.8877 195.121 25.0137 195.678 25.2656C196.234 25.5117 196.674 25.8779 196.996 26.3643C197.324 26.8506 197.488 27.4512 197.488 28.166V38.2119H194.359V36.6475C194.207 37.1982 193.955 37.6201 193.604 37.9131C193.252 38.2061 192.851 38.3525 192.399 38.3525ZM193.639 35.9092C193.896 35.9092 194.072 35.8008 194.166 35.584C194.26 35.3672 194.307 35.1328 194.307 34.8809V31.207C193.873 31.3828 193.536 31.6055 193.296 31.875C193.056 32.1387 192.936 32.5283 192.936 33.0439V34.7402C192.936 35.5195 193.17 35.9092 193.639 35.9092ZM202.665 38.3525C201.188 38.3525 200.14 37.9746 199.519 37.2188C198.903 36.4629 198.596 35.3525 198.596 33.8877V29.8271C198.596 28.7256 198.713 27.8086 198.947 27.0762C199.182 26.3438 199.592 25.7959 200.178 25.4326C200.764 25.0693 201.578 24.8877 202.621 24.8877C203.348 24.8877 203.998 25.0166 204.572 25.2744C205.152 25.5322 205.609 25.9102 205.943 26.4082C206.277 26.9062 206.444 27.5156 206.444 28.2363V30.249H203.236V28.4033C203.236 28.0986 203.192 27.8438 203.104 27.6387C203.017 27.4277 202.826 27.3223 202.533 27.3223C202.018 27.3223 201.76 27.6885 201.76 28.4209V34.8105C201.76 35.0801 201.818 35.3291 201.936 35.5576C202.053 35.7803 202.246 35.8916 202.516 35.8916C202.791 35.8916 202.981 35.7832 203.087 35.5664C203.198 35.3438 203.254 35.0859 203.254 34.793V32.5781H206.444V34.8809C206.444 35.6074 206.28 36.2314 205.952 36.7529C205.63 37.2686 205.185 37.6641 204.616 37.9395C204.048 38.2148 203.397 38.3525 202.665 38.3525ZM210.25 38.3525C209.4 38.3525 208.826 38.1738 208.527 37.8164C208.234 37.4531 208.088 36.8994 208.088 36.1553V27.9375H207.2V25.5381H208.088V22.7432H211.146V25.5381H212.034V27.9375H211.146V35.417C211.146 35.6338 211.182 35.7861 211.252 35.874C211.322 35.9619 211.457 36.0059 211.656 36.0059C211.797 36.0059 211.923 35.9941 212.034 35.9707V38.1152C211.964 38.1387 211.744 38.1826 211.375 38.2471C211.006 38.3174 210.631 38.3525 210.25 38.3525ZM213.027 24.2197V21.6006H216.174V24.2197H213.027ZM213.027 38.2119V25.0283H216.174V38.2119H213.027ZM221.254 38.3525C218.629 38.3525 217.316 36.9902 217.316 34.2656V28.9746C217.316 27.7324 217.665 26.7422 218.362 26.0039C219.06 25.2598 220.023 24.8877 221.254 24.8877C222.49 24.8877 223.457 25.2598 224.154 26.0039C224.852 26.7422 225.2 27.7324 225.2 28.9746V34.2656C225.2 36.9902 223.885 38.3525 221.254 38.3525ZM221.254 35.9268C221.518 35.9268 221.705 35.833 221.816 35.6455C221.934 35.4521 221.992 35.209 221.992 34.916V28.4736C221.992 27.7061 221.746 27.3223 221.254 27.3223C220.762 27.3223 220.516 27.7061 220.516 28.4736V34.916C220.516 35.209 220.571 35.4521 220.683 35.6455C220.8 35.833 220.99 35.9268 221.254 35.9268ZM226.369 38.2119V25.0283H229.516V26.707C229.633 26.2031 229.85 25.7754 230.166 25.4238C230.488 25.0664 230.934 24.8877 231.502 24.8877C232.416 24.8877 233.078 25.1689 233.488 25.7314C233.904 26.2939 234.112 27.0645 234.112 28.043V38.2119H231.01V28.3682C231.01 28.1104 230.957 27.873 230.852 27.6562C230.746 27.4336 230.564 27.3223 230.307 27.3223C230.066 27.3223 229.888 27.4072 229.771 27.5771C229.659 27.7412 229.589 27.9492 229.56 28.2012C229.53 28.4473 229.516 28.6934 229.516 28.9395V38.2119H226.369ZM161.761 56.2119V40.7432H166.507C167.298 40.7432 167.896 40.9248 168.3 41.2881C168.704 41.6455 168.974 42.1494 169.108 42.7998C169.249 43.4443 169.319 44.2031 169.319 45.0762C169.319 45.9199 169.211 46.5938 168.994 47.0977C168.783 47.6016 168.382 47.9502 167.79 48.1436C168.276 48.2432 168.616 48.4863 168.81 48.873C169.009 49.2539 169.108 49.749 169.108 50.3584V56.2119H166.059V50.1562C166.059 49.7051 165.965 49.4268 165.777 49.3213C165.596 49.21 165.3 49.1543 164.89 49.1543V56.2119H161.761ZM164.907 46.4736H165.654C166.082 46.4736 166.296 46.0078 166.296 45.0762C166.296 44.4727 166.249 44.0771 166.155 43.8896C166.062 43.7021 165.886 43.6084 165.628 43.6084H164.907V46.4736ZM173.978 56.3525C173.04 56.3525 172.293 56.1768 171.736 55.8252C171.18 55.4736 170.781 54.9668 170.541 54.3047C170.301 53.6426 170.181 52.8457 170.181 51.9141V46.6143C170.181 45.3896 170.532 44.4639 171.235 43.8369C171.938 43.2041 172.905 42.8877 174.136 42.8877C176.667 42.8877 177.933 44.1299 177.933 46.6143V47.5723C177.933 48.7324 177.921 49.5117 177.897 49.9102H173.327V52.459C173.327 52.6934 173.342 52.9248 173.371 53.1533C173.4 53.376 173.465 53.5605 173.564 53.707C173.67 53.8535 173.837 53.9268 174.065 53.9268C174.394 53.9268 174.599 53.7861 174.681 53.5049C174.763 53.2178 174.804 52.8457 174.804 52.3887V51.123H177.933V51.8701C177.933 52.8545 177.81 53.6807 177.563 54.3486C177.323 55.0107 176.913 55.5117 176.333 55.8516C175.759 56.1855 174.974 56.3525 173.978 56.3525ZM173.31 48.3457H174.804V46.5703C174.804 46.0957 174.745 45.7559 174.628 45.5508C174.511 45.3398 174.335 45.2344 174.101 45.2344C173.849 45.2344 173.652 45.334 173.512 45.5332C173.377 45.7324 173.31 46.0781 173.31 46.5703V48.3457ZM180.455 56.2119L178.864 43.0283H181.562L182.433 50.1123L183.197 43.0283H186.212L187.117 50.1123L187.847 43.0283H190.554L188.945 56.2119H185.632L184.683 48.7324L183.856 56.2119H180.455ZM194.008 56.3525C193.275 56.3525 192.716 56.1826 192.329 55.8428C191.948 55.5029 191.688 55.0371 191.547 54.4453C191.406 53.8535 191.336 53.1826 191.336 52.4326C191.336 51.6299 191.415 50.9736 191.573 50.4639C191.731 49.9482 192.001 49.5264 192.382 49.1982C192.769 48.8701 193.299 48.5918 193.973 48.3633L195.924 47.6953V46.3418C195.924 45.6328 195.692 45.2783 195.229 45.2783C194.808 45.2783 194.597 45.5654 194.597 46.1396V46.9307H191.538C191.532 46.8838 191.529 46.8252 191.529 46.7549C191.529 46.6787 191.529 46.5938 191.529 46.5C191.529 45.1875 191.837 44.2588 192.452 43.7139C193.073 43.1631 194.055 42.8877 195.396 42.8877C196.1 42.8877 196.729 43.0137 197.286 43.2656C197.843 43.5117 198.282 43.8779 198.604 44.3643C198.933 44.8506 199.097 45.4512 199.097 46.166V56.2119H195.968V54.6475C195.815 55.1982 195.563 55.6201 195.212 55.9131C194.86 56.2061 194.459 56.3525 194.008 56.3525ZM195.247 53.9092C195.505 53.9092 195.681 53.8008 195.774 53.584C195.868 53.3672 195.915 53.1328 195.915 52.8809V49.207C195.481 49.3828 195.145 49.6055 194.904 49.875C194.664 50.1387 194.544 50.5283 194.544 51.0439V52.7402C194.544 53.5195 194.778 53.9092 195.247 53.9092ZM200.31 56.2119V43.0283H203.509V44.4961C203.661 43.9863 203.931 43.5879 204.317 43.3008C204.704 43.0137 205.19 42.8701 205.776 42.8701V45.498C205.519 45.498 205.211 45.5273 204.854 45.5859C204.496 45.6387 204.183 45.7148 203.913 45.8145C203.644 45.9082 203.509 46.0137 203.509 46.1309V56.2119H200.31ZM209.143 56.3525C208.533 56.3525 208.05 56.2412 207.692 56.0186C207.335 55.7959 207.068 55.4883 206.893 55.0957C206.717 54.7031 206.6 54.2432 206.541 53.7158C206.488 53.1885 206.462 52.623 206.462 52.0195V46.2891C206.462 45.2754 206.641 44.4551 206.998 43.8281C207.361 43.2012 207.974 42.8877 208.835 42.8877C209.474 42.8877 209.963 43.0254 210.303 43.3008C210.648 43.5703 210.915 43.9482 211.103 44.4346V40.7432H214.302V56.2119H211.103V54.8145C210.927 55.2891 210.692 55.6641 210.399 55.9395C210.112 56.2148 209.693 56.3525 209.143 56.3525ZM210.347 53.8916C210.646 53.8916 210.845 53.7715 210.944 53.5312C211.05 53.291 211.103 52.8604 211.103 52.2393V46.6934C211.103 46.3828 211.056 46.0781 210.962 45.7793C210.874 45.4746 210.675 45.3223 210.364 45.3223C210.024 45.3223 209.811 45.4658 209.723 45.7529C209.635 46.04 209.591 46.3535 209.591 46.6934V52.2393C209.591 53.3408 209.843 53.8916 210.347 53.8916ZM219.127 56.3525C216.525 56.3525 215.225 55.0342 215.225 52.3975V51.3516H218.389V52.8984C218.389 53.1973 218.447 53.4316 218.564 53.6016C218.682 53.7715 218.869 53.8564 219.127 53.8564C219.584 53.8564 219.812 53.5137 219.812 52.8281C219.812 52.2539 219.692 51.8262 219.452 51.5449C219.212 51.2578 218.919 50.9824 218.573 50.7188L216.895 49.4268C216.367 49.0166 215.966 48.583 215.69 48.126C215.415 47.6689 215.277 47.0332 215.277 46.2188C215.277 45.4629 215.456 44.8389 215.813 44.3467C216.177 43.8545 216.654 43.4883 217.246 43.248C217.844 43.0078 218.488 42.8877 219.18 42.8877C221.734 42.8877 223.012 44.1621 223.012 46.7109V46.957H219.76V46.4561C219.76 46.1924 219.713 45.9375 219.619 45.6914C219.531 45.4453 219.355 45.3223 219.092 45.3223C218.646 45.3223 218.424 45.5566 218.424 46.0254C218.424 46.5 218.611 46.8721 218.986 47.1416L220.938 48.5654C221.547 49.0049 222.057 49.5264 222.467 50.1299C222.883 50.7334 223.091 51.5361 223.091 52.5381C223.091 53.7803 222.736 54.7266 222.027 55.377C221.324 56.0273 220.357 56.3525 219.127 56.3525Z" fill="#000515"/>
<g clip-path="url(#clip0_390_1025)">
<path d="M6.12256 33.4138L16.1017 67.5196L54.8189 62.4415L54.5338 28.6558L6.12256 33.4138Z" fill="#6722DB" stroke="black" stroke-width="0.5" stroke-miterlimit="10"/>
<path d="M27.9227 46.7351L31.0379 44.7986L27.2715 44.4716L26.3103 41.1228L24.9129 44.2669L21.1367 43.9354L23.9895 46.3443L22.2547 50.2541L25.9249 47.9741L29.0295 50.5884L27.9227 46.7351Z" fill="#FCCF4F"/>
<path d="M39.6009 44.1614L41.6458 41.1169L38.0761 42.3682L35.819 39.7129L35.8423 43.1483L32.2641 44.4041L35.8579 45.4203L35.8874 49.6984L38.2946 46.1103L42.2007 47.2179L39.6009 44.1614Z" fill="#FCCF4F"/>
<path d="M21.1441 51.8921C21.252 52.5375 20.2606 53.2383 18.9289 53.461C17.5973 53.6837 16.4313 53.3406 16.3239 52.6983C16.2164 52.0559 17.2073 51.3521 18.539 51.1294C19.8707 50.9067 21.0366 51.2497 21.1441 51.8921Z" fill="#FFB0B8"/>
<path d="M49.3321 47.5782C49.44 48.2235 48.4486 48.9244 47.1169 49.1471C45.7853 49.3698 44.6193 49.0267 44.5119 48.3843C44.4044 47.742 45.3948 47.0352 46.7265 46.8125C48.0582 46.5898 49.2241 46.9328 49.3321 47.5782Z" fill="#FFB0B8"/>
<path d="M32.9351 53.5611C31.2459 53.8436 27.4405 50.2979 25.3597 51.132C23.2789 51.9661 23.7509 58.2857 28.1234 59.9666C32.4959 61.6474 38.8554 59.2417 41.4465 56.222C44.0406 53.2018 41.9924 48.0598 39.5078 48.4754C37.3837 48.8306 35.6461 53.1078 32.9351 53.5611Z" fill="#130749"/>
<path d="M33.0236 54.0356C31.4626 54.2967 27.9835 51.2741 26.0527 52.0159C24.1218 52.7576 24.4923 58.2138 28.5156 59.6198C32.536 61.0263 38.4343 58.8842 40.8597 56.2469C43.2855 53.6125 41.4466 49.1907 39.1497 49.5748C37.1865 49.9031 35.535 53.6156 33.0266 54.0351L33.0236 54.0356Z" fill="#E1E3EA"/>
<path d="M42.2681 51.7037L41.9726 51.4015C41.3774 51.981 40.7837 52.4961 40.1924 52.9527L38.5811 49.1959L38.1923 49.3618L39.8444 53.2157C38.8138 53.975 37.7991 54.5544 36.817 54.9999L35.6265 52.2764L35.2383 52.4452L36.4288 55.1688C35.1493 55.7037 33.9289 56.0057 32.8142 56.1524L32.7709 53.8973L32.3498 53.9066L32.3937 56.2013C31.5565 56.2863 30.7819 56.2874 30.0908 56.2379C29.5237 56.1983 28.9909 56.1253 28.4973 56.0306L29.1716 52.3899L28.7574 52.3124L28.0851 55.9466C26.0249 55.4933 24.7272 54.729 24.7103 54.7196L24.4919 55.0801C24.5635 55.1232 25.8825 55.9054 28.0078 56.3631L27.4282 59.4897L27.8424 59.5672L28.42 56.447C28.9225 56.5403 29.4647 56.6147 30.0412 56.6559C30.7513 56.7083 31.5443 56.7072 32.4032 56.6246L32.4723 60.1869L32.8933 60.1776L32.8238 56.5757C32.9976 56.5528 33.1743 56.5293 33.3531 56.4994C34.3719 56.329 35.4642 56.0302 36.6007 55.5558L37.9208 58.5786L38.3091 58.4098L36.9889 55.3869C37.9715 54.9444 38.9887 54.3616 40.0183 53.6146L41.1134 56.1707L41.5022 56.0048L40.3668 53.3546C40.9998 52.8727 41.6342 52.3263 42.2716 51.7061L42.2681 51.7037Z" fill="#130749"/>
<path d="M23.8905 41.6712L21.7677 41.21C21.7865 41.1212 22.2581 39.0155 24.104 38.0586C25.3551 37.4092 26.8621 37.4476 28.5823 38.1748L27.7343 40.1724C26.6467 39.7122 25.7658 39.6456 25.117 39.9773C24.1801 40.4549 23.892 41.6618 23.891 41.6742L23.8905 41.6712Z" fill="#130749"/>
<path d="M38.135 39.5153C38.135 39.5153 37.4649 38.4564 36.4236 38.3096C35.7021 38.2071 34.8908 38.5568 34.0122 39.3457L32.5604 37.7328C33.9503 36.4854 35.3628 35.9587 36.7572 36.1658C38.8139 36.4699 39.9451 38.3076 39.9917 38.3854L38.1305 39.5068L39.0599 38.9479L38.135 39.5153Z" fill="#130749"/>
<path d="M54.4371 23.1323L54.4312 23.1333L49.2643 27.0118L51.639 22.6617C50.6514 22.5243 49.6528 22.4131 48.6433 22.3281L48.6403 22.3286L42.5404 27.7695L45.5309 22.1394C43.7558 22.0725 41.9712 22.0775 40.1872 22.1404L40.1842 22.1409L33.9708 26.867L36.7258 22.3188C34.9105 22.4512 33.1032 22.6312 31.3306 22.8543L24.1776 28.7189L27.558 23.3874C25.991 23.6311 24.4588 23.8996 22.9817 24.1864L15.0119 30.2212L18.5349 25.1196C16.6705 25.5446 14.9233 25.9743 13.3276 26.3941L8.19975 29.7004L8.67636 27.6978C5.48239 28.6508 3.58183 29.3355 3.58183 29.3355L4.18738 32.0407L6.82175 31.111L4.77105 34.6701L5.31496 37.1165L12.242 32.9223L8.6686 37.1732L14.5271 36.4594L20.9109 32.2215L18.2152 36.0076L23.4317 35.3737L29.9332 31.1803L27.1745 34.9189L33.0151 34.2081L40.313 29.9426L36.803 33.7488L40.9445 33.2427L46.4006 30.1413L44.6724 32.7904L48.3522 32.3431L52.293 29.8131L52.3556 31.854L56.5393 31.3438L56.7663 27.9399L53.3846 28.7226L56.9913 24.6709L57.0541 23.728C56.196 23.5046 55.3225 23.2991 54.4391 23.1259L54.4371 23.1323Z" fill="#F9A41C" stroke="black" stroke-width="0.5" stroke-miterlimit="10"/>
<path d="M13.3214 26.395L4.77083 34.6699L4.18169 32.0446L8.67018 27.6987C10.0058 27.298 11.5732 26.8555 13.3214 26.395Z" fill="#FCCF4F" stroke="black" stroke-width="0.5" stroke-miterlimit="10"/>
<path d="M22.9751 24.1844L8.66898 37.1761L5.41825 37.57L5.31484 37.1164L18.5288 25.1206C19.9484 24.8006 21.4359 24.4846 22.9756 24.1873L22.9751 24.1844Z" fill="#FCCF4F" stroke="black" stroke-width="0.5" stroke-miterlimit="10"/>
<path d="M31.3275 22.8547L18.2191 36.013L14.5305 36.4618L27.555 23.3878C28.7898 23.1905 30.0525 23.0129 31.3275 22.8547Z" fill="#FCCF4F" stroke="black" stroke-width="0.5" stroke-miterlimit="10"/>
<path d="M40.1811 22.1414L27.1779 34.9214L23.4351 35.3762L36.7228 22.3193C37.8702 22.2405 39.0232 22.1761 40.1811 22.1414Z" fill="#FCCF4F" stroke="black" stroke-width="0.5" stroke-miterlimit="10"/>
<path d="M48.6402 22.3287L36.8064 33.7514L33.0219 34.2131L45.5313 22.1425C46.5725 22.1793 47.6148 22.2404 48.6407 22.3317L48.6402 22.3287Z" fill="#FCCF4F" stroke="black" stroke-width="0.5" stroke-miterlimit="10"/>
<path d="M54.4313 23.1332L44.67 32.7938L40.9451 33.2456L51.6391 22.6616L51.6421 22.6611C52.5825 22.7912 53.5151 22.9471 54.4318 23.1362L54.4313 23.1332Z" fill="#FCCF4F" stroke="black" stroke-width="0.5" stroke-miterlimit="10"/>
<path d="M56.9886 24.6743L56.7661 27.9399L56.7666 27.9428L52.356 31.8569L48.352 32.3431L56.9886 24.6743Z" fill="#FCCF4F" stroke="black" stroke-width="0.5" stroke-miterlimit="10"/>
<path d="M33.6965 21.199C46.3528 14.1817 47.9724 4.7669 39.7894 2.78788C31.6063 0.808864 27.4948 21.3068 27.4948 21.3068C20.3433 4.108 10.3262 4.62157 9.00355 12.0577C7.68137 19.4967 24.8864 22.9048 24.8864 22.9048L4.88578 22.7585L12.9104 35.4182L25.1645 24.5672L26.5559 35.6704L32.8686 34.6147L32.8517 24.0581L48.1035 31.1312L52.4857 16.4272L33.6941 21.2025L33.6965 21.199Z" fill="white" stroke="black" stroke-width="0.5" stroke-miterlimit="10"/>
<path d="M28.8114 25.4431C28.6033 25.4442 28.4047 25.4102 28.2125 25.3598C29.4279 24.9547 30.2058 24.3508 30.5194 23.5524C30.9809 22.3746 30.2506 21.2495 30.2183 21.2029L29.8351 21.4565C29.8351 21.4565 30.4645 22.4366 30.0884 23.3921C29.7847 24.1583 28.9268 24.7237 27.5441 25.0803C26.3765 24.3981 25.6383 23.0052 25.6288 22.9854L25.2202 23.1974C25.2784 23.307 26.655 25.9168 28.8125 25.9076C28.9565 25.9079 29.098 25.8934 29.241 25.8695C30.7007 25.6254 32.1145 24.1722 33.4529 21.5363L33.0417 21.3299C31.6566 24.0531 30.2315 25.4379 28.8089 25.4465L28.8114 25.4431Z" fill="#FF6666"/>
<path d="M25.5 19.7266L12.9984 15.2904C13.3943 14.0135 14.4556 11.3139 15.6126 11.31C16.1508 11.3055 16.9817 11.9339 17.8992 14.9477L18.3391 14.813C17.5275 12.1392 16.6338 10.8426 15.609 10.8489C13.8462 10.8564 12.6284 14.909 12.4939 15.3686L12.4339 15.5774L25.3428 20.1595L25.4971 19.7271L25.5 19.7266Z" fill="#FF6666"/>
<path d="M31.2362 19.177L43.5327 9.49598L43.3738 9.31468C43.2412 9.1626 40.1105 5.6049 38.1732 6.41804C37.0492 6.89339 36.6227 8.62782 36.8743 11.7254L37.3336 11.6884C37.1083 8.89511 37.4589 7.21924 38.3516 6.84372C39.6151 6.30528 41.9023 8.38989 42.8649 9.43954L30.9501 18.8213L31.2342 19.1835L31.2362 19.177Z" fill="#FF6666"/>
</g>
<defs>
<clipPath id="clip0_390_1025">
<rect width="54" height="62" fill="white" transform="translate(0 8.90747) rotate(-9.49448)"/>
</clipPath>
</defs>
</svg>
