<svg width="331" height="55" viewBox="0 0 331 55" fill="none" xmlns="http://www.w3.org/2000/svg">
<path d="M267.5 7.88867H0V33.8462H15V42.3323H36V54.3127H299V45.3274H304.5V29.8527H289V21.3666H267.5V7.88867Z" fill="#22DEAC"/>
<g opacity="0.5">
<path d="M41.0988 53.9287L50.2814 27.3288L55.1667 27.3125L64.5268 53.8505L59.4632 53.8674L57.8427 49.1413L47.7512 49.175L46.1624 53.9118L41.0988 53.9287ZM52.7654 34.345L49.3758 44.4381L56.2223 44.4152L52.7654 34.345ZM69.9398 53.8325L61.9168 32.5674L66.9447 32.5506L72.3793 47.5277L77.6067 32.515L82.5633 32.4985L74.7894 53.8163L69.9398 53.8325ZM93.1451 54.1917C86.5838 54.2136 82.1101 49.3515 82.0896 43.2006C82.0688 36.9769 86.7951 32.0476 92.8928 32.0272C99.0974 32.0065 103.642 36.6501 103.663 42.9465L103.669 44.8027L86.6952 44.8594C87.3828 47.878 89.7073 49.872 93.1306 49.8606C95.8407 49.8516 97.904 48.3888 98.8948 46.0926L102.861 48.4087C101.054 51.8724 97.852 54.176 93.1451 54.1917ZM92.9072 36.3583C90.0188 36.368 87.7782 38.1225 86.9311 40.7458L98.7699 40.7063C98.0471 37.8334 95.9026 36.3483 92.9072 36.3583ZM105.241 51.2032C105.235 49.4198 106.336 48.2151 108.155 48.209C109.974 48.2029 111.047 49.4004 111.053 51.1838C111.059 52.9308 109.958 54.1356 108.139 54.1417C106.321 54.1477 105.247 52.9503 105.241 51.2032ZM122.832 54.0926C117.804 54.1094 112.548 50.0506 112.525 43.0625C112.501 36.0017 117.551 31.9449 122.829 31.9273C125.575 31.9181 128.003 33.0383 129.543 34.8894L129.534 32.3416L134.348 32.3256L134.419 53.6172L129.605 53.6332L129.596 50.8672C128.07 52.874 125.577 54.0834 122.832 54.0926ZM123.601 49.5769C127.203 49.5649 129.832 46.608 129.819 42.932C129.807 39.2924 127.159 36.3896 123.557 36.4016C119.991 36.4135 117.255 39.2979 117.267 42.9739C117.28 46.6863 120.035 49.5888 123.601 49.5769ZM137.162 53.608L137.09 32.3164L141.94 32.3002L142.011 53.5918L137.162 53.608ZM136.467 27.1138C136.461 25.2576 137.633 24.0162 139.488 24.01C141.378 24.0037 142.523 25.2374 142.529 27.0936C142.535 28.9498 141.398 30.1546 139.508 30.161C137.547 30.1675 136.473 28.97 136.467 27.1138Z" fill="#DDFFF6"/>
</g>
<path d="M284.5 53.4121L291.5 42.9293H284.5L276 31.9473L269.5 42.9293L261.5 31.9473L255.5 42.9293L247.5 31.9473L240 43.9277H249L255.5 53.4121L261.5 43.9277L269.5 53.4121L276 43.9277L284.5 53.4121Z" fill="#FFFFFD"/>
<path d="M122.276 30.1006V17.6025H120.439V14.6318H127.206V17.6025H125.37V30.1006H122.276ZM128.915 30.1006V16.917H132.114V18.3848C132.267 17.875 132.536 17.4766 132.923 17.1895C133.31 16.9023 133.796 16.7588 134.382 16.7588V19.3867C134.124 19.3867 133.816 19.416 133.459 19.4746C133.102 19.5273 132.788 19.6035 132.519 19.7031C132.249 19.7969 132.114 19.9023 132.114 20.0195V30.1006H128.915ZM138.455 30.2412C137.722 30.2412 137.163 30.0713 136.776 29.7314C136.395 29.3916 136.134 28.9258 135.994 28.334C135.853 27.7422 135.783 27.0713 135.783 26.3213C135.783 25.5186 135.862 24.8623 136.02 24.3525C136.178 23.8369 136.448 23.415 136.829 23.0869C137.215 22.7588 137.746 22.4805 138.42 22.252L140.371 21.584V20.2305C140.371 19.5215 140.139 19.167 139.676 19.167C139.254 19.167 139.044 19.4541 139.044 20.0283V20.8193H135.985C135.979 20.7725 135.976 20.7139 135.976 20.6436C135.976 20.5674 135.976 20.4824 135.976 20.3887C135.976 19.0762 136.284 18.1475 136.899 17.6025C137.52 17.0518 138.502 16.7764 139.843 16.7764C140.546 16.7764 141.176 16.9023 141.733 17.1543C142.29 17.4004 142.729 17.7666 143.051 18.2529C143.379 18.7393 143.544 19.3398 143.544 20.0547V30.1006H140.415V28.5361C140.262 29.0869 140.01 29.5088 139.659 29.8018C139.307 30.0947 138.906 30.2412 138.455 30.2412ZM139.694 27.7979C139.952 27.7979 140.128 27.6895 140.221 27.4727C140.315 27.2559 140.362 27.0215 140.362 26.7695V23.0957C139.928 23.2715 139.591 23.4941 139.351 23.7637C139.111 24.0273 138.991 24.417 138.991 24.9326V26.6289C138.991 27.4082 139.225 27.7979 139.694 27.7979ZM148.249 30.2412C147.64 30.2412 147.156 30.1299 146.799 29.9072C146.442 29.6846 146.175 29.377 145.999 28.9844C145.823 28.5918 145.706 28.1318 145.648 27.6045C145.595 27.0771 145.569 26.5117 145.569 25.9082V20.1777C145.569 19.1641 145.747 18.3438 146.105 17.7168C146.468 17.0898 147.08 16.7764 147.942 16.7764C148.58 16.7764 149.07 16.9141 149.409 17.1895C149.755 17.459 150.022 17.8369 150.209 18.3232V14.6318H153.408V30.1006H150.209V28.7031C150.033 29.1777 149.799 29.5527 149.506 29.8281C149.219 30.1035 148.8 30.2412 148.249 30.2412ZM149.453 27.7803C149.752 27.7803 149.951 27.6602 150.051 27.4199C150.156 27.1797 150.209 26.749 150.209 26.1279V20.582C150.209 20.2715 150.162 19.9668 150.069 19.668C149.981 19.3633 149.781 19.2109 149.471 19.2109C149.131 19.2109 148.917 19.3545 148.829 19.6416C148.741 19.9287 148.697 20.2422 148.697 20.582V26.1279C148.697 27.2295 148.949 27.7803 149.453 27.7803ZM155.504 16.1084V13.4893H158.65V16.1084H155.504ZM155.504 30.1006V16.917H158.65V30.1006H155.504ZM160.798 30.1006V16.917H163.945V18.5957C164.062 18.0918 164.279 17.6641 164.595 17.3125C164.917 16.9551 165.363 16.7764 165.931 16.7764C166.845 16.7764 167.507 17.0576 167.917 17.6201C168.333 18.1826 168.541 18.9531 168.541 19.9316V30.1006H165.439V20.2568C165.439 19.999 165.386 19.7617 165.281 19.5449C165.175 19.3223 164.994 19.2109 164.736 19.2109C164.496 19.2109 164.317 19.2959 164.2 19.4658C164.088 19.6299 164.018 19.8379 163.989 20.0898C163.959 20.3359 163.945 20.582 163.945 20.8281V30.1006H160.798ZM174.231 32.3857C173.622 32.3857 173.098 32.3535 172.658 32.2891C172.225 32.2305 171.835 32.1221 171.489 31.9639C171.144 31.8057 170.798 31.583 170.452 31.2959L171.516 29.4766C172.283 29.9336 173.051 30.1621 173.818 30.1621C174.322 30.1621 174.697 30.001 174.943 29.6787C175.189 29.3564 175.312 28.9375 175.312 28.4219V27.1299C175.061 28.0322 174.39 28.4834 173.3 28.4834C172.673 28.4834 172.166 28.334 171.779 28.0352C171.393 27.7363 171.111 27.332 170.936 26.8223C170.76 26.3125 170.672 25.7441 170.672 25.1172V20.3799C170.672 19.6709 170.748 19.0469 170.9 18.5078C171.053 17.9629 171.319 17.5381 171.7 17.2334C172.081 16.9287 172.614 16.7764 173.3 16.7764C173.88 16.7764 174.331 16.9229 174.653 17.2158C174.981 17.5088 175.201 17.9043 175.312 18.4023V16.917H178.521V28.2197C178.521 29.7139 178.175 30.7803 177.483 31.4189C176.798 32.0635 175.714 32.3857 174.231 32.3857ZM174.574 26.1104C175.066 26.1104 175.312 25.665 175.312 24.7744V20.292C175.312 20.0518 175.242 19.8057 175.102 19.5537C174.967 19.3018 174.779 19.1758 174.539 19.1758C174.234 19.1758 174.044 19.29 173.968 19.5186C173.892 19.7412 173.854 19.999 173.854 20.292V24.7744C173.854 25.0908 173.892 25.3926 173.968 25.6797C174.05 25.9668 174.252 26.1104 174.574 26.1104ZM116.747 48.1006V32.6318H121.494C122.285 32.6318 122.882 32.8135 123.287 33.1768C123.691 33.5342 123.96 34.0381 124.095 34.6885C124.236 35.333 124.306 36.0918 124.306 36.9648C124.306 37.8086 124.198 38.4824 123.981 38.9863C123.77 39.4902 123.369 39.8389 122.777 40.0322C123.263 40.1318 123.603 40.375 123.796 40.7617C123.996 41.1426 124.095 41.6377 124.095 42.2471V48.1006H121.045V42.0449C121.045 41.5938 120.952 41.3154 120.764 41.21C120.582 41.0986 120.287 41.043 119.876 41.043V48.1006H116.747ZM119.894 38.3623H120.641C121.069 38.3623 121.283 37.8965 121.283 36.9648C121.283 36.3613 121.236 35.9658 121.142 35.7783C121.048 35.5908 120.872 35.4971 120.615 35.4971H119.894V38.3623ZM128.572 48.2412C127.84 48.2412 127.28 48.0713 126.894 47.7314C126.513 47.3916 126.252 46.9258 126.111 46.334C125.971 45.7422 125.9 45.0713 125.9 44.3213C125.9 43.5186 125.979 42.8623 126.138 42.3525C126.296 41.8369 126.565 41.415 126.946 41.0869C127.333 40.7588 127.863 40.4805 128.537 40.252L130.488 39.584V38.2305C130.488 37.5215 130.257 37.167 129.794 37.167C129.372 37.167 129.161 37.4541 129.161 38.0283V38.8193H126.103C126.097 38.7725 126.094 38.7139 126.094 38.6436C126.094 38.5674 126.094 38.4824 126.094 38.3887C126.094 37.0762 126.401 36.1475 127.017 35.6025C127.638 35.0518 128.619 34.7764 129.961 34.7764C130.664 34.7764 131.294 34.9023 131.851 35.1543C132.407 35.4004 132.847 35.7666 133.169 36.2529C133.497 36.7393 133.661 37.3398 133.661 38.0547V48.1006H130.532V46.5361C130.38 47.0869 130.128 47.5088 129.776 47.8018C129.425 48.0947 129.023 48.2412 128.572 48.2412ZM129.812 45.7979C130.069 45.7979 130.245 45.6895 130.339 45.4727C130.433 45.2559 130.479 45.0215 130.479 44.7695V41.0957C130.046 41.2715 129.709 41.4941 129.469 41.7637C129.229 42.0273 129.108 42.417 129.108 42.9326V44.6289C129.108 45.4082 129.343 45.7979 129.812 45.7979ZM135.774 48.1006V34.917H138.921V36.5957C139.038 36.0918 139.254 35.6641 139.571 35.3125C139.893 34.9551 140.338 34.7764 140.907 34.7764C141.821 34.7764 142.483 35.0576 142.893 35.6201C143.309 36.1826 143.517 36.9531 143.517 37.9316V48.1006H140.415V38.2568C140.415 37.999 140.362 37.7617 140.256 37.5449C140.151 37.3223 139.969 37.2109 139.712 37.2109C139.471 37.2109 139.293 37.2959 139.175 37.4658C139.064 37.6299 138.994 37.8379 138.964 38.0898C138.935 38.3359 138.921 38.582 138.921 38.8281V48.1006H135.774ZM145.656 48.1006V32.6318H148.768V39.4609L150.279 34.917H153.54L151.563 40.6475L154.076 48.1006H150.728L148.768 41.8867V48.1006H145.656ZM155.381 34.1084V31.4893H158.527V34.1084H155.381ZM155.381 48.1006V34.917H158.527V48.1006H155.381ZM160.675 48.1006V34.917H163.822V36.5957C163.939 36.0918 164.156 35.6641 164.472 35.3125C164.794 34.9551 165.24 34.7764 165.808 34.7764C166.722 34.7764 167.384 35.0576 167.794 35.6201C168.21 36.1826 168.418 36.9531 168.418 37.9316V48.1006H165.316V38.2568C165.316 37.999 165.263 37.7617 165.158 37.5449C165.052 37.3223 164.871 37.2109 164.613 37.2109C164.372 37.2109 164.194 37.2959 164.077 37.4658C163.965 37.6299 163.895 37.8379 163.866 38.0898C163.836 38.3359 163.822 38.582 163.822 38.8281V48.1006H160.675ZM174.108 50.3857C173.499 50.3857 172.975 50.3535 172.535 50.2891C172.102 50.2305 171.712 50.1221 171.366 49.9639C171.021 49.8057 170.675 49.583 170.329 49.2959L171.393 47.4766C172.16 47.9336 172.928 48.1621 173.695 48.1621C174.199 48.1621 174.574 48.001 174.82 47.6787C175.066 47.3564 175.189 46.9375 175.189 46.4219V45.1299C174.938 46.0322 174.267 46.4834 173.177 46.4834C172.55 46.4834 172.043 46.334 171.656 46.0352C171.27 45.7363 170.988 45.332 170.812 44.8223C170.637 44.3125 170.549 43.7441 170.549 43.1172V38.3799C170.549 37.6709 170.625 37.0469 170.777 36.5078C170.93 35.9629 171.196 35.5381 171.577 35.2334C171.958 34.9287 172.491 34.7764 173.177 34.7764C173.757 34.7764 174.208 34.9229 174.53 35.2158C174.858 35.5088 175.078 35.9043 175.189 36.4023V34.917H178.397V46.2197C178.397 47.7139 178.052 48.7803 177.36 49.4189C176.675 50.0635 175.591 50.3857 174.108 50.3857ZM174.451 44.1104C174.943 44.1104 175.189 43.665 175.189 42.7744V38.292C175.189 38.0518 175.119 37.8057 174.979 37.5537C174.844 37.3018 174.656 37.1758 174.416 37.1758C174.111 37.1758 173.921 37.29 173.845 37.5186C173.769 37.7412 173.73 37.999 173.73 38.292V42.7744C173.73 43.0908 173.769 43.3926 173.845 43.6797C173.927 43.9668 174.129 44.1104 174.451 44.1104ZM184.14 48.2412C181.539 48.2412 180.238 46.9229 180.238 44.2861V43.2402H183.402V44.7871C183.402 45.0859 183.461 45.3203 183.578 45.4902C183.695 45.6602 183.882 45.7451 184.14 45.7451C184.597 45.7451 184.826 45.4023 184.826 44.7168C184.826 44.1426 184.706 43.7148 184.465 43.4336C184.225 43.1465 183.932 42.8711 183.587 42.6074L181.908 41.3154C181.38 40.9053 180.979 40.4717 180.704 40.0146C180.428 39.5576 180.291 38.9219 180.291 38.1074C180.291 37.3516 180.469 36.7275 180.827 36.2354C181.19 35.7432 181.668 35.377 182.259 35.1367C182.857 34.8965 183.502 34.7764 184.193 34.7764C186.748 34.7764 188.025 36.0508 188.025 38.5996V38.8457H184.773V38.3447C184.773 38.0811 184.726 37.8262 184.632 37.5801C184.545 37.334 184.369 37.2109 184.105 37.2109C183.66 37.2109 183.437 37.4453 183.437 37.9141C183.437 38.3887 183.625 38.7607 184 39.0303L185.951 40.4541C186.56 40.8936 187.07 41.415 187.48 42.0186C187.896 42.6221 188.104 43.4248 188.104 44.4268C188.104 45.6689 187.75 46.6152 187.041 47.2656C186.337 47.916 185.371 48.2412 184.14 48.2412Z" fill="#000515"/>
<path fill-rule="evenodd" clip-rule="evenodd" d="M13.8705 17.9427L18.0002 22.0657L15.2002 24.8612L11.0704 20.7381L6.94067 24.8612L4.14062 22.0657L8.27039 17.9427L4 13.6793L6.80005 10.8838L11.0704 15.1472L15.3408 10.8838L18.1409 13.6793L13.8705 17.9427Z" fill="white"/>
<path fill-rule="evenodd" clip-rule="evenodd" d="M38.1483 28.8543L45.7415 36.435L40.5932 41.5749L33 33.9942L25.4069 41.5749L20.2586 36.435L27.8517 28.8543L20 21.0154L25.1483 15.8755L33 23.7144L40.8518 15.8755L46.0001 21.0154L38.1483 28.8543Z" fill="white"/>
<path d="M323.996 9.30637L320.707 6.01947C317.022 2.25874 311.934 0 306.117 0C293.446 0 281.577 10.721 279.362 24.2711C278.053 32.2871 280.379 39.6337 285.112 44.5169L288.836 48.25C292.293 51.6404 296.956 53.7589 302.391 53.9429C315.881 54.3983 328.392 42.8102 330.069 28.4228C330.968 20.7013 328.527 13.8767 323.994 9.30637H323.996Z" fill="#26DCAA"/>
<path d="M326.696 25.0485C325.02 39.4336 312.509 51.024 299.019 50.5686C285.768 50.1201 277.087 38.1938 279.362 24.2711C281.577 10.721 293.446 0 306.117 0C318.788 0 328.327 11.0591 326.696 25.0485Z" fill="black"/>
<path d="M326.287 24.8233C324.635 38.9392 312.357 50.3088 299.118 49.8695C286.108 49.4371 277.577 37.7363 279.806 24.0665C281.975 10.7579 293.634 0.223286 306.085 0.225586C318.745 0.225586 327.895 11.0914 326.287 24.8256V24.8233Z" fill="white"/>
<path d="M306.085 0.225586C299.713 0.225586 293.59 2.96045 288.836 7.37212C293.51 3.24797 299.412 0.713216 305.542 0.717816C318.2 0.724716 327.34 11.5998 325.726 25.3408C324.918 32.2205 321.562 38.47 316.769 43.0243C321.864 38.4355 325.45 31.9698 326.287 24.8256C327.895 11.0914 318.745 0.227886 306.085 0.225586Z" fill="white"/>
<path d="M303.667 7.03162C313.636 7.07762 320.757 15.7077 319.428 26.5115C318.97 30.2377 317.562 33.7247 315.494 36.7011C318.211 33.4211 320.074 29.3545 320.612 24.9566C321.928 14.1782 314.798 5.57793 304.831 5.54112C298.324 5.51812 292.123 9.13854 288.183 14.5991C292.125 9.97579 297.772 7.00401 303.669 7.03162H303.667Z" fill="#F9E4CE"/>
<path d="M321.194 24.6004C319.816 35.9286 309.953 45.0394 299.329 44.722C288.854 44.4092 281.917 35.0315 283.667 23.9931C285.381 13.1894 294.841 4.62365 304.95 4.65585C315.197 4.68805 322.539 13.5206 321.191 24.6004H321.194Z" fill="black"/>
<path d="M320.61 24.9563C319.265 35.967 309.68 44.8203 299.359 44.5144C289.177 44.2107 282.428 35.0953 284.125 24.3582C285.788 13.842 294.991 5.50629 304.829 5.54309C314.796 5.57989 321.928 14.1801 320.61 24.9586V24.9563Z" fill="#26DCAA"/>
<path d="M303.667 7.03162C313.636 7.07762 320.757 15.7077 319.428 26.5115C318.97 30.2377 317.562 33.7247 315.494 36.7011C318.211 33.4211 320.074 29.3545 320.612 24.9566C321.928 14.1782 314.798 5.57793 304.831 5.54112C298.324 5.51812 292.123 9.13854 288.183 14.5991C292.125 9.97579 297.772 7.00401 303.669 7.03162H303.667Z" fill="white"/>
<path d="M293.862 32.618C294.508 33.6784 295.681 34.6008 297.63 34.9665C299.695 35.3575 301.468 34.7158 302.724 33.6508C304.859 31.8406 305.367 28.9608 303.619 28.0016C300.999 26.5641 298.743 29.3564 298.743 29.3564C298.743 29.3564 296.312 25.851 293.965 27.9855C293.147 28.7308 292.802 30.8906 293.86 32.618H293.862Z" fill="#FF8806"/>
<path d="M296.776 34.8977C295.419 34.4837 294.398 33.7269 293.774 32.7011C293.183 31.7327 292.967 30.5527 293.167 29.4533C293.287 28.7885 293.558 28.2227 293.912 27.9007C296.079 25.9295 298.305 28.5815 298.759 29.1703C299.223 28.6597 301.307 26.5873 303.686 27.8892C304.348 28.2503 304.744 28.9127 304.794 29.7569C304.875 31.0887 304.088 32.6735 302.802 33.7637C301.349 34.992 299.483 35.4612 297.604 35.1024C297.316 35.0472 297.038 34.9805 296.776 34.9V34.8977ZM296.031 27.459C295.4 27.3256 294.713 27.4475 294.023 28.0732C293.712 28.3538 293.473 28.8621 293.365 29.4648C293.178 30.5044 293.385 31.62 293.949 32.5378C294.667 33.7131 295.939 34.5136 297.655 34.8333C299.465 35.1714 301.257 34.7206 302.648 33.5429C303.863 32.5125 304.608 31.0243 304.537 29.7845C304.493 29.0231 304.15 28.4481 303.557 28.1192C301.05 26.7345 298.848 29.4096 298.828 29.4349L298.731 29.5545L298.653 29.4395C298.637 29.4142 297.471 27.7627 296.031 27.459Z" fill="black"/>
<path d="M297.696 31.8959C296.266 31.5186 295.465 30.111 295.111 29.2875L295.304 29.1587C295.672 30.0074 296.532 31.5071 298.096 31.7072C299.684 31.912 301.149 30.6722 301.88 29.9108L302.043 30.0948C301.278 30.8907 299.739 32.188 298.05 31.9649C297.929 31.9488 297.809 31.9258 297.694 31.8959H297.696Z" fill="black"/>
<path d="M299.978 23.5862C297.835 23.0181 296.429 26.7328 298.566 27.4205C300.832 28.1497 302.253 24.1888 299.978 23.5862Z" fill="#00C257"/>
<path d="M298.733 27.5951C298.664 27.5813 298.593 27.5629 298.522 27.5399C297.337 27.1557 297.202 25.9459 297.56 24.989C297.917 24.0367 298.828 23.1604 300.019 23.4732C301.247 23.7975 301.436 25.0143 301.075 26.0172C300.732 26.9671 299.858 27.8297 298.733 27.5974V27.5951ZM299.748 23.6618C298.789 23.5146 298.055 24.2507 297.758 25.0465C297.438 25.8976 297.56 26.9694 298.609 27.3029C299.686 27.6457 300.537 26.8429 300.859 25.9505C301.178 25.0672 301.015 23.9884 299.934 23.7009C299.872 23.6848 299.81 23.671 299.748 23.6618Z" fill="black"/>
<path d="M298.467 22.8845C297.422 26.3738 294.101 28.667 291.288 27.9517C288.682 27.2869 287.585 24.2715 288.641 21.2514C289.664 18.3187 292.452 16.1727 295.051 16.3981C297.846 16.6396 299.477 19.5079 298.467 22.8845Z" fill="white"/>
<path d="M291.336 28.0847C291.309 28.0778 291.281 28.0709 291.251 28.064C288.604 27.3854 287.488 24.3055 288.56 21.2395C289.068 19.7858 289.995 18.4954 291.191 17.5776C292.403 16.6484 293.781 16.1838 295.081 16.3011C297.924 16.5449 299.591 19.4684 298.566 22.9025C298.057 24.6092 296.976 26.1135 295.548 27.1048C294.172 28.0594 292.67 28.3975 291.334 28.0847H291.336ZM294.938 16.4943C293.705 16.4092 292.41 16.8485 291.263 17.7271C290.106 18.6127 289.209 19.8617 288.719 21.2648C288.222 22.6885 288.19 24.1399 288.647 25.3636C289.121 26.631 290.064 27.5211 291.325 27.8386C291.352 27.8455 291.38 27.8524 291.405 27.8593C292.693 28.156 294.138 27.8271 295.46 26.907C296.833 25.9524 297.873 24.5057 298.363 22.8657C299.352 19.5604 297.756 16.7381 295.016 16.4966C294.989 16.4943 294.963 16.492 294.936 16.4897L294.938 16.4943Z" fill="black"/>
<path d="M294.677 17.5504C292.682 17.3457 290.52 18.9903 289.74 21.2628C289.722 21.318 289.708 21.3755 289.69 21.4307L292.142 21.854L289.451 23.103C289.499 24.6762 290.359 25.9873 291.82 26.3231C293.938 26.8108 296.406 25.0788 297.198 22.4865C297.97 19.9587 296.784 17.7712 294.674 17.555L294.677 17.5504Z" fill="black"/>
<path d="M291.849 26.4404C291.829 26.4358 291.808 26.4312 291.785 26.4266C290.345 26.093 289.411 24.7843 289.363 23.1259V23.0384L291.81 21.8999L289.579 21.5135L289.627 21.3524C289.637 21.3179 289.648 21.2811 289.66 21.2443C290.458 18.9258 292.673 17.2306 294.708 17.4468C296.866 17.6653 298.087 19.9103 297.298 22.4956C296.498 25.1224 294.002 26.8912 291.849 26.4381V26.4404ZM289.545 23.1558C289.623 24.6945 290.508 25.8998 291.856 26.208C293.924 26.6727 296.33 24.9867 297.1 22.4657C297.855 20.0046 296.698 17.8631 294.644 17.6492C294.623 17.6492 294.603 17.6446 294.584 17.6423C292.657 17.479 290.575 19.0776 289.821 21.2719C289.814 21.2949 289.807 21.3179 289.8 21.3386L292.477 21.7964L289.542 23.1558H289.545Z" fill="black"/>
<path d="M301.055 22.4358C300.739 26.07 303.461 29.1752 307.419 29.1959C311.716 29.2189 315.426 25.6675 315.364 21.4904C315.304 17.5503 311.863 14.9557 307.96 15.4663C304.337 15.9402 301.354 18.9787 301.055 22.4358Z" fill="white"/>
<path d="M305.976 29.1845C304.585 28.8947 303.373 28.2024 302.466 27.1834C301.314 25.8884 300.787 24.207 300.941 22.4428C301.247 18.9351 304.286 15.8391 307.964 15.3538C311.931 14.8316 315.448 17.4722 315.513 21.4814C315.582 25.7343 311.789 29.3639 307.414 29.334C306.919 29.3294 306.436 29.2788 305.976 29.1845ZM309.245 15.5286C308.824 15.5079 308.394 15.5263 307.954 15.5838C304.398 16.0438 301.457 19.0386 301.167 22.4313C301.019 24.1357 301.532 25.7573 302.65 27.004C303.816 28.3059 305.507 29.0534 307.425 29.0603C311.63 29.0787 315.271 25.5894 315.214 21.5044C315.165 18.0909 312.504 15.685 309.247 15.5286H309.245Z" fill="black"/>
<path d="M307.909 16.7846C310.878 16.4349 313.422 18.4453 313.424 21.4032C313.424 21.4768 313.415 21.5504 313.413 21.6241L309.316 21.9116L312.847 23.7885C311.869 25.7574 309.795 27.1536 307.499 27.1858C304.497 27.2295 302.37 24.9248 302.581 22.1416C302.784 19.4642 305.105 17.1158 307.909 16.7846Z" fill="black"/>
<path d="M306.404 27.2292C305.339 27.0337 304.405 26.53 303.697 25.7709C302.788 24.798 302.358 23.5122 302.464 22.1505C302.673 19.4179 305.049 17.0097 307.913 16.6693C309.362 16.4968 310.751 16.8602 311.823 17.7158C312.934 18.6037 313.567 19.9102 313.569 21.3938C313.569 21.4421 313.567 21.4904 313.562 21.5387L313.551 21.7457L309.778 22.0056L313.033 23.7284L312.978 23.8388C311.945 25.9158 309.755 27.289 307.494 27.3189C307.119 27.3235 306.756 27.2936 306.404 27.2292ZM308.895 16.874C308.571 16.8533 308.24 16.8625 307.904 16.9016C305.167 17.219 302.892 19.5214 302.696 22.1344C302.6 23.4363 303.011 24.66 303.881 25.5869C304.78 26.5461 306.064 27.0751 307.501 27.0521C309.61 27.0199 311.651 25.7594 312.656 23.848L308.854 21.8193L313.272 21.5042C313.272 21.4743 313.277 21.4444 313.277 21.4168C313.277 20.0068 312.679 18.7601 311.625 17.9136C310.853 17.2926 309.905 16.9407 308.891 16.8763L308.895 16.874Z" fill="black"/>
</svg>
