<svg width="120" height="15" viewBox="0 0 120 15" fill="none" xmlns="http://www.w3.org/2000/svg">
<path fill-rule="evenodd" clip-rule="evenodd" d="M5 -0.000488281H0V4.99951H5V9.99951H0V14.9995H5V9.99951H10V14.9995H15V9.99951H20V14.9995H25V9.99951H30V14.9995H35V9.99951H40V14.9995H45V9.99951H50V14.9995H55V9.99951H60V14.9995H65V9.99951H70V14.9995H75V9.99951H80V14.9995H85V9.99951H90V14.9995H95V9.99951H100V14.9995H105V9.99951H110V14.9995H115V9.99951H120V4.99951H115V-0.000488281H110V4.99951H105V-0.000488281H100V4.99951H95V-0.000488281H90V4.99951H85V-0.000488281H80V4.99951H75V-0.000488281H70V4.99951H65V-0.000488281H60V4.99951H55V-0.000488281H50V4.99951H45V-0.000488281H40V4.99951H35V-0.000488281H30V4.99951H25V-0.000488281H20V4.99951H15V-0.000488281H10V4.99951H5V-0.000488281ZM10 4.99951H15V9.99951H10V4.99951ZM20 4.99951V9.99951H25V4.99951H20ZM30 4.99951H35V9.99951H30V4.99951ZM40 4.99951H45V9.99951H40V4.99951ZM50 4.99951H55V9.99951H50V4.99951ZM60 4.99951V9.99951H65V4.99951H60ZM70 4.99951H75V9.99951H70V4.99951ZM80 4.99951V9.99951H85V4.99951H80ZM90 4.99951V9.99951H95V4.99951H90ZM100 4.99951H105V9.99951H100V4.99951ZM110 4.99951V9.99951H115V4.99951H110Z" fill="#22DEAC"/>
</svg>
