<svg width="17" height="21" viewBox="0 0 17 21" fill="none" xmlns="http://www.w3.org/2000/svg">
<g clip-path="url(#clip0_1397_3673)">
<path d="M5.24294 19.6678C5.24294 19.6678 5.25004 19.6748 5.25359 19.6818C6.58916 20.9508 8.31899 21.2215 9.84992 20.6274C10.3969 20.4165 10.9866 20.065 11.5016 19.5834C12.3044 18.8382 12.9189 17.7731 12.8585 16.4092C12.8017 15.1472 12.0735 14.8097 11.2423 14.8273C10.5106 14.8414 9.69718 15.1331 9.19634 15.3124C8.763 15.4636 8.32255 15.576 7.87144 15.5444C7.13972 15.4987 6.46839 15.0558 5.74733 14.9644C5.60525 14.9468 5.4454 14.9398 5.27491 14.9539C4.78473 14.9925 4.23771 15.1718 3.93224 15.5831C3.02647 16.8204 4.49346 18.9542 5.24294 19.6678Z" fill="black"/>
<path d="M5.24292 19.6677C5.24292 19.6677 5.25002 19.6748 5.25358 19.6818C6.58914 20.9508 8.31897 21.2215 9.8499 20.6274C10.3969 20.4165 10.9865 20.065 11.5016 19.5834C10.8445 18.4163 9.66164 17.6395 8.32963 17.657C6.99052 17.6711 5.84321 18.4796 5.24292 19.6677Z" fill="#EE5BFF"/>
<path d="M6.7915 7.36111C6.80216 10.2436 6.03137 12.7394 4.90893 13.9135C4.47203 14.3705 3.9783 14.6271 3.4597 14.6306C1.60554 14.6376 0.0888279 11.3931 0.0746198 7.38571C0.0568597 3.37835 1.54871 0.123241 3.40642 0.116211C3.90015 0.116211 4.36902 0.341186 4.79171 0.752468C5.96033 1.88789 6.7844 4.41886 6.79505 7.36111H6.7915Z" fill="white"/>
<path d="M4.7882 0.752441C3.03705 0.984447 1.66241 3.84936 1.67662 7.33999C1.67662 7.45599 1.67662 7.56848 1.68373 7.68096L4.49693 7.84618L1.84712 9.36476C2.27692 11.9239 3.48105 13.7975 4.90897 13.917C6.03141 12.7429 6.8022 10.2471 6.79154 7.36459C6.78089 4.41883 5.96037 1.88786 4.7882 0.755957V0.752441Z" fill="black"/>
<path d="M4.93738 13.9874H4.90186C3.47394 13.8643 2.22008 12.0118 1.77607 9.3754L1.76897 9.32618L4.25184 7.90251L1.61268 7.74784V7.68105C1.60558 7.56857 1.60558 7.45256 1.60558 7.33656C1.59137 3.84242 2.98731 0.917747 4.78109 0.678711H4.81661L4.84147 0.699802C6.05982 1.88092 6.85547 4.49625 6.86613 7.36117C6.87678 10.1944 6.14862 12.7254 4.96579 13.9628L4.94093 13.9874H4.93738ZM1.92881 9.4C2.36571 11.9239 3.54498 13.6991 4.8841 13.8397C6.01364 12.634 6.73115 10.0995 6.72405 7.36117C6.71339 4.5525 5.94615 1.99341 4.77043 0.826351C3.06546 1.08999 1.74411 3.93733 1.75476 7.34008C1.75476 7.43147 1.75476 7.52287 1.75831 7.61426L4.74557 7.79003L1.93236 9.4H1.92881Z" fill="black"/>
<path d="M16.929 7.31521C16.9396 10.1977 16.1688 12.6935 15.0464 13.8676C14.6095 14.3246 14.1157 14.5812 13.5972 14.5847C11.743 14.5917 10.2263 11.3472 10.2121 7.33981C10.1943 3.33245 11.6862 0.077343 13.5403 0.0703125C14.0341 0.0703125 14.5029 0.295287 14.9256 0.70657C16.0942 1.84199 16.9183 4.37296 16.929 7.31521Z" fill="white"/>
<path d="M14.9257 0.706543C13.1745 0.938548 11.7999 3.80346 11.8141 7.29409C11.8141 7.41009 11.8141 7.52258 11.8212 7.63507L14.6344 7.80028L11.9846 9.31886C12.4144 11.878 13.6185 13.7516 15.0464 13.8711C16.1689 12.697 16.9396 10.2012 16.929 7.3187C16.9183 4.37293 16.0978 1.84196 14.9257 0.710058V0.706543Z" fill="black"/>
<path d="M15.0748 13.9449H15.0393C13.6114 13.8219 12.3575 11.9693 11.9135 9.33292L11.9064 9.2837L14.3893 7.86003L11.7501 7.70536V7.63857C11.743 7.52609 11.743 7.41008 11.743 7.29408C11.7288 3.79994 13.1248 0.875266 14.9185 0.63623H14.9541L14.9789 0.657322C16.1973 1.83844 16.9929 4.45377 17.0036 7.31869C17.0142 10.152 16.2861 12.6829 15.1032 13.9203L15.0784 13.9449H15.0748ZM12.0627 9.35752C12.4996 11.8815 13.6789 13.6567 15.018 13.7973C16.144 12.5915 16.865 10.0571 16.8579 7.31869C16.8473 4.51002 16.0801 1.95093 14.9043 0.78387C13.1994 1.04751 11.878 3.89485 11.8887 7.2976C11.8887 7.38899 11.8887 7.48039 11.8922 7.57178L14.8795 7.74755L12.0663 9.35752H12.0627Z" fill="black"/>
<path d="M9.80727 11.9063C9.80727 12.5707 9.26381 13.1085 8.59248 13.1085C7.92115 13.1085 7.37769 12.5707 7.37769 11.9063C7.37769 11.2419 7.92115 10.7041 8.59248 10.7041C9.26381 10.7041 9.80727 11.2419 9.80727 11.9063Z" fill="#FFAA00"/>
</g>
<defs>
<clipPath id="clip0_1397_3673">
<rect width="17" height="21" fill="white"/>
</clipPath>
</defs>
</svg>
