<svg width="24" height="24" viewBox="0 0 24 24" fill="none" xmlns="http://www.w3.org/2000/svg">
<g clip-path="url(#clip0_1397_3378)">
<path d="M21.7607 4.97664C22.2347 5.97576 22.0646 7.00217 21.8458 8.01494C21.463 9.7979 20.5499 11.3201 19.4758 12.7725C18.9259 13.517 18.186 14.0446 17.4522 14.7344C18.2908 14.6844 19.0201 14.7996 19.7402 14.9861C19.8329 15.0103 19.9301 15.024 20.0197 15.0543C20.3539 15.1635 20.6411 15.3393 20.5499 15.7457C20.4588 16.155 20.1215 16.2111 19.7736 16.1368C18.9821 15.9685 18.1997 15.8154 17.3748 15.8791C16.2384 15.9685 15.3102 16.4961 14.4108 17.1162C14.2376 17.236 14.0841 17.3876 13.9049 17.4983C13.7059 17.6211 13.4886 17.7257 13.2729 17.515C13.0602 17.3057 13.0951 17.0738 13.1984 16.8251C13.3625 16.4294 13.7621 16.2596 14.0143 15.9488C14.5171 15.6926 14.9774 15.359 15.5745 15.1574C14.7982 14.5373 14.5521 13.7186 14.6478 12.8605C14.9957 9.71149 16.5119 7.22504 19.1386 5.4527C19.9088 4.93267 20.793 4.62186 21.7592 4.97664H21.7607Z" fill="#050402"/>
<path d="M10.5809 4.13228C11.0564 5.02376 10.9501 5.97589 10.745 6.88253C10.0476 9.96026 8.42361 12.4391 5.7665 14.2039C5.51279 14.3722 5.26212 14.5587 4.93093 14.5496C4.46605 14.4161 4.10448 14.1372 3.85989 13.7263C3.42236 12.9925 3.39957 12.1844 3.54389 11.3793C3.9875 8.90504 5.23022 6.85827 7.10493 5.22541C8.06811 4.38548 9.18473 3.74264 10.5794 4.13228H10.5809Z" fill="#050402"/>
<path d="M21.7609 4.97679C20.7946 4.62202 19.9089 4.93282 19.1402 5.45285C16.5135 7.2252 14.9973 9.71164 14.6494 12.8606C14.5552 13.7203 14.8013 14.539 15.5761 15.1576C14.9791 15.3592 14.5188 15.6927 14.0159 15.949C12.4648 15.4107 11.8252 14.5041 11.8191 12.8864C11.8115 10.4106 12.8841 8.35926 14.3486 6.46411C15.3559 5.16024 16.6047 4.13686 18.1406 3.53041C19.1433 3.1347 20.427 2.93457 21.3902 4.15808C21.5801 4.39915 21.7806 4.6387 21.7609 4.97527V4.97679Z" fill="#FEFEFD"/>
<path d="M10.5809 4.13226C9.18629 3.74262 8.06966 4.38545 7.10648 5.22539C5.23177 6.85825 3.98906 8.90501 3.54545 11.3793C3.40112 12.1844 3.42543 12.9925 3.86144 13.7263C4.10604 14.1372 4.46609 14.4161 4.93249 14.5495C3.55608 15.4865 1.3517 15.1939 0.816939 13.1714C0.421944 11.681 0.757689 10.268 1.29853 8.89137C2.19942 6.60051 3.63812 4.71294 5.71336 3.35297C6.6097 2.76623 7.57592 2.36143 8.6971 2.46149C9.58736 2.54185 10.4153 3.24836 10.5824 4.13226H10.5809Z" fill="#FEFEFD"/>
<path d="M8.11378 15.5257C8.10314 14.9906 8.30672 14.5812 8.57562 14.2007C8.65462 14.0885 8.74425 13.9065 8.93871 14.0248C9.09671 14.1218 9.08151 14.2931 9.04202 14.4417C8.95846 14.7556 8.8506 15.0633 8.764 15.3772C8.73666 15.4772 8.66829 15.6197 8.82021 15.6728C8.89465 15.6986 9.01011 15.6622 9.08455 15.6167C9.43093 15.3984 9.71047 15.1164 9.91101 14.7525C10.0219 14.5509 10.2057 14.2916 10.4397 14.4432C10.7344 14.6343 10.4974 14.8875 10.3485 15.0739C10.0371 15.4651 9.70895 15.8456 9.28357 16.1186C9.02075 16.2853 8.72906 16.4172 8.41914 16.2338C8.13201 16.064 8.09555 15.7774 8.1153 15.5273L8.11378 15.5257Z" fill="#050402"/>
</g>
<defs>
<clipPath id="clip0_1397_3378">
<rect width="24" height="24" fill="white"/>
</clipPath>
</defs>
</svg>
