<svg width="28" height="19" viewBox="0 0 28 19" fill="none" xmlns="http://www.w3.org/2000/svg">
<path d="M1.8095 7.51428C1.65374 7.51428 1.48759 7.50431 1.31106 7.48189C0.633492 7.39469 0.24668 7.10817 0.0363999 6.95619L0.0208236 6.94373C-0.00254094 6.92629 -0.00773304 6.8939 0.0104393 6.87397C0.0286117 6.85155 0.0623604 6.84656 0.0831288 6.864L0.0987052 6.87646C0.298601 7.02346 0.672433 7.30001 1.32145 7.38223C1.87441 7.45199 2.33391 7.3922 2.58053 7.31247C2.60909 7.3025 2.63765 7.31745 2.64803 7.34486C2.65841 7.37226 2.64284 7.39967 2.61428 7.40964C2.43775 7.46694 2.15218 7.51428 1.80691 7.51428H1.8095Z" fill="black"/>
<path d="M2.62198 5.28432C2.39093 5.28432 2.06642 5.25193 1.66663 5.13234C1.03579 4.94298 0.711281 4.59916 0.534749 4.41479L0.503597 4.3824C0.482828 4.36247 0.485424 4.33008 0.506193 4.31015C0.526961 4.29022 0.56071 4.29271 0.581478 4.31264L0.612631 4.34503C0.791759 4.53438 1.0929 4.85329 1.69778 5.03517C2.29747 5.21455 2.71024 5.19213 2.90235 5.16472C2.93091 5.15974 2.95687 5.17967 2.96206 5.20708C2.96725 5.23449 2.94648 5.26189 2.91793 5.26438C2.84783 5.27435 2.74659 5.28432 2.62198 5.28432Z" fill="black"/>
<path d="M3.8345 3.159C3.8345 3.159 3.82931 3.159 3.82671 3.159C3.57489 3.12661 3.16991 3.01948 2.67666 2.70057C2.15226 2.36173 1.86669 1.9332 1.71872 1.63173C1.70574 1.60681 1.71872 1.57691 1.74468 1.56446C1.77064 1.552 1.80179 1.56446 1.81477 1.58937C1.95755 1.87838 2.23273 2.29197 2.73637 2.61835C3.21404 2.9273 3.60085 3.02945 3.84229 3.05934C3.87084 3.06183 3.89161 3.08924 3.88642 3.11665C3.88382 3.14156 3.86046 3.16149 3.8345 3.16149V3.159Z" fill="black"/>
<path d="M12.0951 8.06964C12.1003 10.9622 10.9996 13.4612 9.4056 14.6347C8.78255 15.0931 8.08681 15.3472 7.34953 15.3472C4.72232 15.3472 2.58836 12.0884 2.58058 8.06715C2.57538 4.0484 4.69896 0.789551 7.32616 0.789551C8.0245 0.789551 8.68909 1.01877 9.28359 1.43235C10.9347 2.57345 12.0899 5.11725 12.0925 8.06964H12.0951Z" fill="#F8CF0E"/>
<path d="M7.28181 13.9096C9.24032 13.9096 10.828 11.2939 10.828 8.06712C10.828 4.84039 9.24032 2.22461 7.28181 2.22461C5.32329 2.22461 3.7356 4.84039 3.7356 8.06712C3.7356 11.2939 5.32329 13.9096 7.28181 13.9096Z" fill="black"/>
<path d="M7.28188 13.9595C5.2959 13.9595 3.68115 11.316 3.68115 8.06715C3.68115 4.81826 5.2959 2.1748 7.28188 2.1748C9.26786 2.1748 10.8826 4.81826 10.8826 8.06715C10.8826 11.316 9.26786 13.9595 7.28188 13.9595ZM7.28188 2.27696C5.35561 2.27696 3.78759 4.87557 3.78759 8.06715C3.78759 11.2587 5.35561 13.8573 7.28188 13.8573C9.20815 13.8573 10.7762 11.2587 10.7762 8.06715C10.7762 4.87557 9.20815 2.27696 7.28188 2.27696Z" fill="black"/>
<path d="M8.79303 10.1654C9.03186 9.81412 9.14609 9.40801 9.13051 8.94459C9.11753 8.30677 8.94879 7.82592 8.62169 7.49206C8.34131 7.21551 7.99344 7.07848 7.56769 7.08097C7.44827 7.08097 7.34962 7.09592 7.27433 7.12083C7.26655 7.09841 7.26395 7.06851 7.26395 7.04609C7.26395 7.00872 7.28731 6.96885 7.34702 6.93397C7.40154 6.89909 7.50798 6.87916 7.66634 6.87667C7.8247 6.87667 7.99863 6.90407 8.17776 6.96885C8.35948 7.03114 8.49188 7.10837 8.57755 7.1881C8.73072 6.9539 8.80081 6.6051 8.79303 6.14168C8.78524 5.90001 8.75668 5.67827 8.70216 5.47895C8.50746 5.33444 8.22709 5.21984 7.86623 5.13014L7.85325 4.4998C7.61701 4.31045 7.3626 4.21826 7.09261 4.21826C6.82262 4.22574 6.59157 4.32041 6.39168 4.51226L6.40466 4.99062C6.49033 4.95325 6.55263 4.93581 6.59417 4.93581C6.65907 4.93581 6.69282 4.97816 6.69541 5.06038C6.69541 5.0828 6.69541 5.10274 6.69541 5.10772C6.26447 5.20239 5.92698 5.38676 5.67257 5.66581C5.37402 5.99967 5.23124 6.44315 5.24422 6.99626C5.24941 7.29523 5.30912 7.55684 5.42075 7.79353C5.53498 8.02524 5.68036 8.18469 5.86468 8.27189C5.9815 8.21957 6.11649 8.18968 6.27485 8.18718C6.60455 8.1822 6.86935 8.30428 7.07184 8.55094C7.14713 8.64312 7.20684 8.74029 7.24837 8.84742C7.29251 8.95954 7.31847 9.05173 7.31587 9.12896C7.31847 9.20869 7.27693 9.25354 7.19126 9.25354C7.10819 8.94459 6.99136 8.72783 6.83041 8.5908C6.66945 8.45377 6.46696 8.38899 6.22034 8.38899C5.97371 8.38899 5.77122 8.5036 5.60507 8.72285C5.43892 8.9421 5.36104 9.22115 5.36883 9.54753C5.37921 9.8789 5.46488 10.1928 5.63882 10.4918C5.92439 10.7036 6.24889 10.8406 6.60455 10.9004L6.62013 11.4834C6.85637 11.6728 7.11078 11.7649 7.38077 11.7649C7.64817 11.7649 7.88181 11.6628 8.07651 11.4759L8.06613 10.9926C7.97527 11.03 7.91296 11.0474 7.87662 11.0474C7.80912 11.0499 7.77537 11.01 7.77537 10.9228C7.77537 10.9004 7.77537 10.8855 7.77537 10.8755C8.2167 10.7534 8.55678 10.5167 8.79043 10.1604L8.79303 10.1654Z" fill="white"/>
<path d="M7.37288 11.8195C7.0925 11.8195 6.82771 11.7224 6.58627 11.528L6.5681 11.5131L6.55512 10.95C6.20725 10.8852 5.88793 10.7457 5.60756 10.5389L5.59458 10.524C5.42064 10.22 5.32978 9.90358 5.3168 9.55478C5.30901 9.21594 5.39209 8.92693 5.56343 8.7002C5.73996 8.466 5.96062 8.34641 6.22023 8.34641H6.22542C6.47983 8.34641 6.69531 8.41867 6.86665 8.56068C7.0276 8.69522 7.14702 8.90699 7.23269 9.20597C7.24048 9.20597 7.24827 9.20099 7.25346 9.19601C7.26644 9.18355 7.26903 9.15863 7.26644 9.14119C7.26644 9.07143 7.24567 8.98672 7.20154 8.8771C7.16519 8.77993 7.10808 8.68775 7.03279 8.59556C6.83809 8.35887 6.59406 8.24675 6.27734 8.24925C6.12937 8.24925 6.00216 8.27665 5.88793 8.32897L5.86457 8.33894L5.84121 8.32897C5.6491 8.23679 5.49333 8.06986 5.37392 7.82569C5.25709 7.57655 5.19998 7.30996 5.19219 7.00849C5.17921 6.44542 5.32719 5.98698 5.63352 5.64565C5.88793 5.36412 6.22023 5.17725 6.64598 5.08009C6.64598 5.08009 6.64598 5.0776 6.64598 5.0751C6.64339 5.00036 6.61223 5.00036 6.59666 5.00036C6.58108 5.00036 6.52916 5.00783 6.43051 5.05019L6.35782 5.08009L6.34224 4.50456L6.35782 4.48961C6.5655 4.2878 6.80434 4.18814 7.0925 4.18066H7.10029C7.38067 4.18066 7.64546 4.27783 7.88949 4.47217L7.90766 4.48712L7.92064 5.10002C8.27111 5.18971 8.54629 5.30681 8.7384 5.44883L8.75398 5.45879L8.75917 5.47623C8.81369 5.68053 8.84484 5.90726 8.85003 6.15142C8.86042 6.62231 8.78513 6.98358 8.62677 7.22525L8.59302 7.27757L8.54629 7.23272C8.46062 7.153 8.33082 7.08323 8.16467 7.02344C7.99333 6.96115 7.82719 6.93375 7.67402 6.93375C7.4897 6.93375 7.41441 6.96115 7.38326 6.98108C7.34432 7.006 7.32355 7.03091 7.32355 7.04835C7.32355 7.05334 7.32355 7.05583 7.32355 7.06081C7.39365 7.04337 7.47672 7.0359 7.57537 7.0359C8.0141 7.03091 8.38015 7.17542 8.66831 7.46194C9.00579 7.80576 9.17713 8.2916 9.19271 8.94686C9.20569 9.41775 9.08887 9.83881 8.84484 10.1976C8.61119 10.5489 8.27371 10.793 7.83497 10.9226C7.83497 10.9226 7.83497 10.9276 7.83497 10.9301C7.83497 10.9799 7.84536 10.9949 7.85055 10.9998C7.85055 10.9998 7.85834 11.0073 7.8817 11.0073C7.89728 11.0073 7.94401 10.9998 8.05304 10.955L8.12573 10.9251L8.13871 11.5031L8.12314 11.5181C7.91545 11.7174 7.66883 11.822 7.39105 11.822H7.38326L7.37288 11.8195ZM6.67194 11.4632C6.89261 11.6327 7.13144 11.7149 7.38067 11.7174C7.62469 11.7174 7.84017 11.6277 8.02449 11.4583L8.0167 11.0696C7.95958 11.0895 7.91545 11.0995 7.8817 11.102C7.82719 11.102 7.79344 11.0845 7.77527 11.0671C7.74411 11.0372 7.72594 10.9899 7.72594 10.9276C7.72594 10.9002 7.72594 10.8827 7.73113 10.8628L7.73892 10.8379L7.76488 10.8304C8.19323 10.7108 8.52552 10.4766 8.75138 10.1378C8.98243 9.79645 9.09406 9.39532 9.08108 8.94437C9.0681 8.31652 8.90715 7.85061 8.58783 7.52672C8.31784 7.25764 7.98555 7.1231 7.57277 7.13306C7.45855 7.13306 7.36509 7.14552 7.29759 7.17044L7.24827 7.18788L7.23009 7.14054C7.21711 7.11064 7.21711 7.07576 7.21452 7.05084C7.21452 7.01098 7.23009 6.94869 7.32096 6.89388C7.38326 6.85402 7.49749 6.83159 7.66883 6.8291C7.83757 6.8291 8.0141 6.859 8.19842 6.92378C8.34899 6.9761 8.4736 7.04088 8.56706 7.11313C8.69167 6.8889 8.75138 6.56501 8.74359 6.14644C8.73581 5.91722 8.70985 5.70296 8.66052 5.51111C8.4736 5.37906 8.20361 5.26695 7.85834 5.18224L7.8194 5.17227L7.80642 4.52698C7.58835 4.35756 7.35211 4.27285 7.10548 4.27285H7.0977C6.84588 4.27783 6.633 4.36503 6.45128 4.53694L6.46166 4.92063C6.51618 4.9007 6.56291 4.89073 6.59666 4.88824C6.64339 4.88824 6.74723 4.90817 6.75242 5.06015C6.75242 5.08009 6.75242 5.09504 6.75242 5.105V5.14736L6.71088 5.15732C6.29032 5.24951 5.96322 5.4264 5.71659 5.70046C5.42843 6.02436 5.28825 6.46036 5.30123 6.99603C5.30642 7.28504 5.36353 7.53917 5.47257 7.77337C5.579 7.98764 5.70881 8.13215 5.86976 8.21686C5.99178 8.16703 6.12677 8.13962 6.27734 8.13962C6.62262 8.13713 6.90559 8.26419 7.11587 8.52331C7.19894 8.62297 7.25865 8.72512 7.30019 8.83225C7.34951 8.95433 7.37288 9.0515 7.37288 9.13123C7.37288 9.18355 7.3599 9.2284 7.32874 9.25829C7.29759 9.29068 7.25346 9.30563 7.19375 9.30563H7.15221L7.14183 9.26826C7.06135 8.96679 6.94972 8.76 6.79655 8.63293C6.64339 8.50587 6.45647 8.44358 6.22542 8.44358H6.22023C5.99178 8.44358 5.80486 8.54573 5.6491 8.75501C5.49074 8.9643 5.41545 9.23089 5.42064 9.5498C5.43103 9.87867 5.5167 10.1752 5.68025 10.4617C5.95543 10.6635 6.27215 10.7955 6.61483 10.8553L6.65637 10.8628L6.67194 11.4632Z" fill="black"/>
<path d="M25.9179 6.5251C25.7024 6.5251 25.4895 6.50268 25.2792 6.46032C25.2507 6.45534 25.2325 6.42793 25.2377 6.40053C25.2429 6.37312 25.2715 6.35568 25.3 6.36066C25.7335 6.45035 26.1853 6.44288 26.611 6.34322C27.2289 6.19622 27.6572 5.88728 27.909 5.65557C27.9298 5.63564 27.9636 5.63564 27.9843 5.65557C28.0051 5.67551 28.0051 5.70789 27.9843 5.72783C27.7247 5.9695 27.2782 6.2909 26.6396 6.44288C26.4059 6.49769 26.1619 6.52759 25.9179 6.52759V6.5251Z" fill="black"/>
<path d="M25.0092 4.42737C24.9677 4.42737 24.9236 4.42737 24.882 4.42488C24.8535 4.42488 24.8301 4.39997 24.8327 4.37256C24.8327 4.34515 24.8613 4.32522 24.8872 4.32522C25.3286 4.34266 25.7751 4.26294 26.1749 4.09601C26.7538 3.85184 27.1198 3.47812 27.3223 3.20655C27.3405 3.18413 27.3717 3.17914 27.395 3.19409C27.4184 3.21153 27.4236 3.24143 27.408 3.26385C27.1977 3.54539 26.8187 3.93157 26.2164 4.1857C25.84 4.34515 25.4246 4.42737 25.0092 4.42737Z" fill="black"/>
<path d="M23.8982 2.28226C23.8748 2.28226 23.8541 2.26732 23.8463 2.24489C23.8385 2.21749 23.8567 2.19008 23.8852 2.18261C24.3136 2.08045 24.716 1.88114 25.0457 1.61206C25.5233 1.2209 25.757 0.764955 25.866 0.451029C25.8764 0.423623 25.905 0.411166 25.9335 0.41864C25.9621 0.428606 25.9751 0.456012 25.9673 0.483419C25.853 0.809802 25.6116 1.28318 25.1158 1.68929C24.7731 1.97083 24.3577 2.17513 23.9138 2.28226C23.9086 2.28226 23.906 2.28226 23.9008 2.28226H23.8982Z" fill="black"/>
<path d="M15.4482 7.58156C15.4326 10.5813 16.5619 13.1774 18.2104 14.4007C18.8542 14.8766 19.5733 15.1457 20.3417 15.1482C23.0676 15.1581 25.295 11.7847 25.3184 7.61644C25.3391 3.4482 23.1506 0.0597901 20.4248 0.0498242C19.7005 0.0473327 19.0099 0.284023 18.3921 0.707574C16.6735 1.88604 15.4663 4.51704 15.4482 7.58156Z" fill="#F8CF0E"/>
<path d="M20.3987 13.394C22.3573 13.394 23.945 10.7782 23.945 7.5515C23.945 4.32477 22.3573 1.70898 20.3987 1.70898C18.4402 1.70898 16.8525 4.32477 16.8525 7.5515C16.8525 10.7782 18.4402 13.394 20.3987 13.394Z" fill="black"/>
<path d="M20.3988 13.4439C18.4128 13.4439 16.7981 10.8004 16.7981 7.55152C16.7981 4.30264 18.4128 1.65918 20.3988 1.65918C22.3848 1.65918 23.9995 4.30264 23.9995 7.55152C23.9995 10.8004 22.3848 13.4439 20.3988 13.4439ZM20.3988 1.76133C18.4725 1.76133 16.9045 4.35994 16.9045 7.55152C16.9045 10.7431 18.4725 13.3417 20.3988 13.3417C22.3251 13.3417 23.8931 10.7431 23.8931 7.55152C23.8931 4.35994 22.3251 1.76133 20.3988 1.76133Z" fill="black"/>
<path d="M21.9695 9.64979C22.2084 9.29849 22.3226 8.89238 22.307 8.42897C22.294 7.79115 22.1253 7.31029 21.7982 6.97644C21.5178 6.69988 21.17 6.56285 20.7442 6.56534C20.6248 6.56534 20.5261 6.58029 20.4508 6.60521C20.4431 6.58278 20.4405 6.55289 20.4405 6.53046C20.4405 6.49309 20.4638 6.45323 20.5235 6.41835C20.5781 6.38347 20.6845 6.36353 20.8429 6.36104C21.0012 6.36104 21.1751 6.38845 21.3543 6.45323C21.536 6.51551 21.6684 6.59275 21.7541 6.67248C21.9072 6.43828 21.9773 6.08947 21.9695 5.62606C21.9618 5.38438 21.9332 5.16264 21.8787 4.96332C21.684 4.81882 21.4036 4.70421 21.0427 4.61452L21.0298 3.98417C20.7935 3.79482 20.5391 3.70264 20.2691 3.70264C19.9991 3.71011 19.7681 3.80479 19.5682 3.99663L19.5812 4.47499C19.6668 4.43762 19.7291 4.42018 19.7707 4.42018C19.8356 4.42018 19.8693 4.46254 19.8719 4.54476C19.8719 4.56718 19.8719 4.58711 19.8719 4.59209C19.441 4.68677 19.1035 4.87114 18.8491 5.15018C18.5505 5.48404 18.4078 5.92753 18.4207 6.48063C18.4259 6.77961 18.4856 7.04121 18.5973 7.27791C18.7115 7.50961 18.8595 7.66907 19.0412 7.75627C19.158 7.70395 19.293 7.67405 19.4514 7.67156C19.7811 7.66658 20.0459 7.78866 20.2484 8.03531C20.3236 8.1275 20.3833 8.22467 20.4249 8.3318C20.469 8.44392 20.495 8.5361 20.4924 8.61334C20.495 8.69306 20.4534 8.73791 20.3678 8.73791C20.2847 8.42897 20.1679 8.21221 20.0069 8.07518C19.846 7.93815 19.6435 7.87337 19.3968 7.87337C19.1502 7.87337 18.9477 7.98798 18.7816 8.20723C18.6154 8.42648 18.5376 8.70552 18.5453 9.0319C18.5557 9.36327 18.6414 9.6772 18.8153 9.97617C19.1009 10.1879 19.4254 10.325 19.7811 10.3848L19.7966 10.9678C20.0329 11.1571 20.2873 11.2493 20.5573 11.2493C20.8247 11.2493 21.0583 11.1472 21.253 10.9603L21.2426 10.477C21.1518 10.5143 21.0895 10.5318 21.0531 10.5318C20.9856 10.5343 20.9519 10.4944 20.9519 10.4072C20.9519 10.3848 20.9519 10.3698 20.9519 10.3599C21.3932 10.2378 21.7333 10.0011 21.9669 9.64481L21.9695 9.64979Z" fill="white"/>
<path d="M20.5494 11.3039C20.269 11.3039 20.0042 11.2067 19.7628 11.0124L19.7446 10.9975L19.7316 10.4344C19.3838 10.3696 19.0644 10.2301 18.7841 10.0233L18.7711 10.0083C18.5972 9.70438 18.5063 9.38796 18.4933 9.03915C18.4855 8.70031 18.5686 8.4113 18.7399 8.18458C18.9165 7.95038 19.1371 7.83079 19.3967 7.83079H19.4019C19.6563 7.83079 19.8718 7.90304 20.0432 8.04506C20.2041 8.17959 20.3235 8.39137 20.4092 8.69035C20.417 8.69035 20.4248 8.68536 20.43 8.68038C20.443 8.66792 20.4455 8.64301 20.443 8.62557C20.443 8.55581 20.4222 8.4711 20.3781 8.36147C20.3417 8.26431 20.2846 8.17212 20.2093 8.07994C20.0146 7.84325 19.768 7.72615 19.4539 7.73362C19.3059 7.73362 19.1787 7.76103 19.0644 7.81335L19.0411 7.82331L19.0177 7.81335C18.823 7.72116 18.6698 7.55673 18.5504 7.31007C18.4336 7.06092 18.3765 6.79433 18.3687 6.49286C18.3557 5.92979 18.5037 5.47136 18.81 5.13003C19.0644 4.84849 19.3967 4.66163 19.8225 4.56446C19.8225 4.56446 19.8225 4.56197 19.8225 4.55948C19.8199 4.48473 19.7887 4.48473 19.7732 4.48473C19.7576 4.48473 19.7057 4.49221 19.607 4.53456L19.5343 4.56446L19.5188 3.98893L19.5343 3.97398C19.742 3.77217 19.9809 3.67251 20.269 3.66504C20.5546 3.66504 20.822 3.76221 21.066 3.95654L21.0842 3.97149L21.0972 4.58439C21.4476 4.67409 21.7228 4.79119 21.9149 4.93071L21.9305 4.94068L21.9357 4.95812C21.9902 5.16242 22.0214 5.38914 22.0265 5.63331C22.0369 6.10419 21.9616 6.46546 21.8033 6.70713L21.7695 6.75945L21.7228 6.71461C21.6371 6.63488 21.5073 6.56512 21.3412 6.50532C21.1698 6.44304 21.0037 6.41563 20.8505 6.41563C20.6662 6.41563 20.5909 6.44304 20.5598 6.46297C20.5208 6.48788 20.5001 6.5128 20.5001 6.53024C20.5001 6.53522 20.5001 6.53771 20.5001 6.54269C20.5702 6.52525 20.6532 6.51778 20.7519 6.51778C20.7571 6.51778 20.7623 6.51778 20.7701 6.51778C21.1984 6.51778 21.5593 6.65979 21.8448 6.94382C22.1823 7.29014 22.3536 7.77598 22.3692 8.42874C22.3822 8.89963 22.2654 9.32069 22.0214 9.67946C21.7877 10.0333 21.4502 10.2774 21.0115 10.4045C21.0115 10.4045 21.0115 10.4095 21.0115 10.412C21.0115 10.4593 21.0219 10.4767 21.0271 10.4792C21.0271 10.4792 21.0349 10.4867 21.0582 10.4867C21.0738 10.4867 21.1205 10.4792 21.2296 10.4344L21.3022 10.4045L21.3152 10.9825L21.2997 10.9975C21.092 11.1968 20.8453 11.3014 20.5676 11.3014H20.5598L20.5494 11.3039ZM19.8485 10.9476C20.0691 11.117 20.308 11.1993 20.5572 11.2018C20.8012 11.2018 21.0167 11.1121 21.201 10.9426L21.1932 10.554C21.1361 10.5739 21.092 10.5839 21.0582 10.5864C21.0037 10.5864 20.97 10.5689 20.9518 10.5515C20.9206 10.5216 20.9025 10.4742 20.9025 10.412C20.9025 10.3846 20.9025 10.3671 20.9076 10.3472L20.9154 10.3223L20.9414 10.3148C21.3697 10.1952 21.702 9.961 21.9279 9.62216C22.1589 9.28083 22.2706 8.8797 22.2576 8.42874C22.2446 7.80089 22.0837 7.33498 21.7643 7.01109C21.4944 6.74201 21.1647 6.61246 20.7493 6.61744C20.6351 6.61744 20.5416 6.6299 20.4741 6.65481L20.4248 6.67225L20.4066 6.62491C20.3936 6.59502 20.3936 6.56013 20.391 6.53522C20.391 6.49536 20.4066 6.43307 20.4975 6.37826C20.5598 6.33839 20.674 6.31597 20.8453 6.31348C21.0115 6.3085 21.1906 6.34338 21.3749 6.40815C21.5281 6.46048 21.6501 6.52525 21.7436 6.59751C21.8682 6.37327 21.9279 6.04938 21.9201 5.63081C21.9123 5.4016 21.8864 5.18733 21.837 4.99549C21.6501 4.86344 21.3801 4.75132 21.0349 4.66661L20.9959 4.65665L20.9829 4.01135C20.7623 3.84193 20.526 3.75972 20.2742 3.75722C20.0224 3.7647 19.8095 3.84941 19.6278 4.02132L19.6382 4.40501C19.6927 4.38508 19.7394 4.37511 19.7732 4.37262C19.8199 4.37262 19.9237 4.39255 19.9289 4.54453C19.9289 4.56446 19.9289 4.57941 19.9289 4.58938V4.63173L19.8874 4.6417C19.4668 4.73388 19.1397 4.91078 18.8931 5.18484C18.6049 5.50873 18.4648 5.94474 18.4777 6.48041C18.4829 6.76942 18.54 7.02355 18.6491 7.25775C18.7555 7.47201 18.8853 7.61652 19.0463 7.70123C19.1683 7.6514 19.3033 7.624 19.4539 7.624C19.7965 7.61901 20.0821 7.74857 20.2924 8.00768C20.3755 8.10734 20.4352 8.20949 20.4767 8.31663C20.526 8.43871 20.5494 8.53588 20.5494 8.6156C20.5494 8.66792 20.5364 8.71277 20.5053 8.74267C20.4741 8.77506 20.4274 8.78751 20.3703 8.79001H20.3287L20.3183 8.75263C20.2379 8.45117 20.1262 8.24437 19.9731 8.11731C19.8199 7.99024 19.6304 7.93045 19.3967 7.92796C19.1683 7.92796 18.9814 8.03011 18.8256 8.23939C18.6673 8.44867 18.592 8.71526 18.5972 9.03417C18.6075 9.36305 18.6932 9.65953 18.8568 9.94605C19.1319 10.1479 19.4461 10.2799 19.7913 10.3397L19.8329 10.3472L19.8485 10.9476Z" fill="black"/>
<path d="M17.6033 17.4705C15.7342 19.4263 11.9543 19.364 10.2202 17.7495C8.83128 16.4565 8.9507 14.4957 10.0255 13.965C12.1438 12.9161 13.7716 15.0388 13.7716 15.0388C13.7716 15.0388 16.2949 12.5473 18.0862 14.269C18.6807 14.8395 18.7768 16.2447 17.6033 17.473V17.4705Z" fill="white"/>
<path d="M15.3187 11.0971C15.3187 11.9143 14.6282 12.5771 13.7767 12.5771C12.9252 12.5771 12.2346 11.9143 12.2346 11.0971C12.2346 10.2799 12.9252 9.61719 13.7767 9.61719C14.6282 9.61719 15.3187 10.2799 15.3187 11.0971Z" fill="#594CF8"/>
</svg>
