<svg width="27" height="17" viewBox="0 0 27 17" fill="none" xmlns="http://www.w3.org/2000/svg">
<path d="M12.1599 10.657C12.0404 11.357 12.5898 12.0252 13.3876 12.1457C14.183 12.2684 14.9258 11.7979 15.0452 11.0979C15.1646 10.3979 14.6153 9.72977 13.8175 9.60931C13.0221 9.48658 12.2793 9.95704 12.1599 10.657Z" fill="#594CF8"/>
<path d="M13.6408 12.2117C13.5548 12.2117 13.4664 12.2049 13.3805 12.1912C12.5588 12.0662 11.9903 11.373 12.1121 10.648C12.234 9.92303 13.0031 9.4344 13.8247 9.56167C14.6464 9.68667 15.2148 10.3799 15.093 11.1049C15.0333 11.4571 14.8231 11.7639 14.4983 11.9685C14.2475 12.1276 13.9489 12.2117 13.6432 12.2117H13.6408ZM12.2077 10.6639C12.093 11.3389 12.6257 11.9821 13.3948 12.1003C13.7674 12.1571 14.14 12.0844 14.4434 11.8912C14.7443 11.7003 14.9402 11.4162 14.9975 11.0912C15.1121 10.4162 14.5795 9.77303 13.8104 9.65485C13.0413 9.53667 12.3247 9.98894 12.2101 10.6639H12.2077Z" fill="black"/>
<path d="M13.3613 10.0525C13.8701 10.3298 13.4186 11.0821 12.9075 10.8048C12.3987 10.5275 12.8501 9.77528 13.3613 10.0525Z" fill="white"/>
<path d="M20.0805 1.20011C17.3528 1.27738 15.2294 3.8842 15.3369 7.01829C15.3465 7.27056 15.3656 7.52283 15.4038 7.76829C15.4396 8.00238 15.485 8.22965 15.5447 8.45238C15.5662 8.53874 15.5901 8.62283 15.6164 8.70465C15.6403 8.77738 15.6618 8.85238 15.688 8.92511C15.8743 9.46147 16.1299 9.9592 16.4428 10.4001C17.3887 11.7501 18.8505 12.5978 20.4603 12.5524C22.7557 12.4865 24.6235 10.6251 25.0917 8.16829C25.1371 7.94556 25.1681 7.71601 25.1872 7.48192C25.1872 7.46147 25.1896 7.44556 25.192 7.42511C25.2087 7.19783 25.2135 6.96374 25.2063 6.73192C25.1012 3.59783 22.8083 1.12056 20.0829 1.20011H20.0805Z" fill="white"/>
<path d="M20.3933 6.13431C18.1266 6.22067 16.2492 7.39113 15.6855 8.92522C15.8719 9.46158 16.1274 9.95931 16.4403 10.4002C17.3862 11.7502 18.848 12.5979 20.4578 12.5525C22.7532 12.4866 24.6211 10.6252 25.0892 8.1684C24.2628 6.89795 22.4547 6.05704 20.3933 6.13431Z" fill="black"/>
<path d="M25.8105 7.02031C25.7842 7.02485 25.7675 7.04985 25.7722 7.07485C25.8296 7.35212 26.066 8.81349 25.1249 10.3294C24.3773 11.5339 23.3933 12.0567 23.2022 12.1498C23.1783 12.1612 23.1687 12.1885 23.1807 12.2112C23.1902 12.2271 23.207 12.2362 23.2237 12.2362C23.2308 12.2362 23.238 12.2362 23.2452 12.2317C23.8065 11.9589 24.6162 11.3271 25.2062 10.3771C26.1663 8.83167 25.9227 7.34076 25.8654 7.05667C25.8606 7.03167 25.8343 7.01576 25.8081 7.02031H25.8105Z" fill="black"/>
<path d="M6.91955 1.20011C9.64725 1.27738 11.7707 3.8842 11.6632 7.01829C11.6536 7.27056 11.6345 7.52283 11.5963 7.76829C11.5605 8.00238 11.5151 8.22965 11.4554 8.45238C11.4339 8.53874 11.41 8.62283 11.3837 8.70465C11.3598 8.77738 11.3383 8.85238 11.3121 8.92511C11.1258 9.46147 10.8702 9.9592 10.5573 10.4001C9.61143 11.7501 8.14964 12.5978 6.53977 12.5524C4.24439 12.4865 2.37655 10.6251 1.9084 8.16829C1.86302 7.94556 1.83197 7.71601 1.81286 7.48192C1.81286 7.46147 1.81047 7.44556 1.80808 7.42511C1.79136 7.19783 1.78659 6.96374 1.79375 6.73192C1.89885 3.59783 4.19184 1.12056 6.91716 1.20011H6.91955Z" fill="white"/>
<path d="M6.60675 6.13431C8.87347 6.22067 10.7509 7.39113 11.3146 8.92522C11.1282 9.46158 10.8727 9.95931 10.5598 10.4002C9.61391 11.7502 8.15213 12.5979 6.54226 12.5525C4.24688 12.4866 2.37904 10.6252 1.91089 8.1684C2.73732 6.89795 4.54544 6.05704 6.60675 6.13431Z" fill="black"/>
<path d="M3.79775 12.1498C3.60905 12.0567 2.62497 11.5362 1.87497 10.3294C0.933892 8.81349 1.17036 7.35212 1.22768 7.07485C1.23246 7.04985 1.21574 7.02485 1.18947 7.02031C1.16319 7.01576 1.13692 7.03167 1.13214 7.05667C1.07482 7.34076 0.833574 8.83167 1.79138 10.3771C2.38134 11.3271 3.19106 11.9589 3.75236 12.2317C3.75953 12.2362 3.76669 12.2362 3.77386 12.2362C3.79058 12.2362 3.8073 12.2271 3.81685 12.2112C3.8288 12.1885 3.81924 12.1612 3.79536 12.1498H3.79775Z" fill="black"/>
<path d="M10.7293 14.0024C10.7293 14.0024 10.7364 13.9979 10.7388 13.9933C11.902 13.1524 13.4498 12.9524 14.8543 13.282C16.5764 13.6865 17.7181 15.032 17.7086 15.9024C17.699 16.7092 17.0517 16.9411 16.3041 16.9501C15.6425 16.957 14.613 16.6433 13.6146 16.5888C12.6974 16.5365 10.4403 17.3297 9.6807 16.6388C8.82799 15.8615 10.0748 14.4751 10.7293 14.0001V14.0024Z" fill="black"/>
<path d="M15.32 16.8386C14.7945 16.7454 14.1998 16.625 13.6146 16.5909C12.7762 16.5454 10.8224 17.2 9.91235 16.7886C10.3065 15.2704 12.3009 14.4727 13.746 14.9659C14.7587 15.3113 15.1337 16.0318 15.32 16.8363V16.8386Z" fill="#F189F9"/>
</svg>
