<svg width="59" height="89" viewBox="0 0 59 89" fill="none" xmlns="http://www.w3.org/2000/svg">
<path d="M2.204 76.432H9.224V77.284H6.2V85H5.228V77.284H2.204V76.432ZM12.7297 78.628C13.7257 78.628 14.4817 78.964 14.9857 79.636C15.4417 80.236 15.6817 81.088 15.7057 82.168H10.8097C10.8577 82.864 11.0377 83.404 11.3737 83.788C11.7097 84.172 12.1777 84.364 12.7657 84.364C13.2697 84.364 13.6897 84.232 14.0017 83.98C14.2657 83.764 14.4697 83.44 14.6257 83.008H15.5857C15.4417 83.608 15.1657 84.088 14.7457 84.472C14.2297 84.928 13.5697 85.168 12.7657 85.168C11.8777 85.168 11.1577 84.868 10.6297 84.292C10.0777 83.692 9.81369 82.9 9.81369 81.892C9.81369 80.98 10.0657 80.212 10.5937 79.6C11.1217 78.952 11.8297 78.628 12.7297 78.628ZM12.7537 79.432C12.2017 79.432 11.7577 79.612 11.4217 79.972C11.0857 80.332 10.8937 80.812 10.8337 81.424H14.7097C14.5897 80.092 13.9297 79.432 12.7537 79.432ZM17.0219 76.264H17.9699V85H17.0219V76.264ZM22.2102 78.628C23.2062 78.628 23.9622 78.964 24.4662 79.636C24.9222 80.236 25.1622 81.088 25.1862 82.168H20.2902C20.3382 82.864 20.5182 83.404 20.8542 83.788C21.1902 84.172 21.6582 84.364 22.2462 84.364C22.7502 84.364 23.1702 84.232 23.4822 83.98C23.7462 83.764 23.9502 83.44 24.1062 83.008H25.0662C24.9222 83.608 24.6462 84.088 24.2262 84.472C23.7102 84.928 23.0502 85.168 22.2462 85.168C21.3582 85.168 20.6382 84.868 20.1102 84.292C19.5582 83.692 19.2942 82.9 19.2942 81.892C19.2942 80.98 19.5462 80.212 20.0742 79.6C20.6022 78.952 21.3102 78.628 22.2102 78.628ZM22.2342 79.432C21.6822 79.432 21.2382 79.612 20.9022 79.972C20.5662 80.332 20.3742 80.812 20.3142 81.424H24.1902C24.0702 80.092 23.4102 79.432 22.2342 79.432ZM28.8664 78.628C29.8024 78.628 30.4984 79.036 30.9544 79.864V78.796H31.9144V84.568C31.9144 86.548 30.9664 87.544 29.0824 87.544C28.2424 87.544 27.5944 87.376 27.1624 87.04C26.7184 86.704 26.4424 86.2 26.3344 85.528H27.2944C27.3664 85.948 27.5464 86.26 27.8224 86.452C28.0984 86.656 28.5184 86.764 29.0824 86.764C30.3304 86.764 30.9544 86.068 30.9544 84.7V83.608C30.4984 84.436 29.8024 84.856 28.8664 84.856C28.0024 84.856 27.3184 84.556 26.8144 83.968C26.3104 83.392 26.0704 82.66 26.0704 81.76C26.0704 80.848 26.3104 80.116 26.8144 79.54C27.3184 78.928 28.0024 78.628 28.8664 78.628ZM29.0104 79.42C28.3864 79.42 27.9064 79.636 27.5584 80.092C27.2224 80.5 27.0544 81.064 27.0544 81.76C27.0544 82.408 27.1984 82.948 27.4984 83.356C27.8344 83.812 28.3264 84.052 28.9984 84.052C29.6224 84.052 30.1024 83.836 30.4624 83.404C30.7984 82.984 30.9664 82.432 30.9664 81.76C30.9664 81.064 30.7984 80.5 30.4624 80.092C30.1024 79.636 29.6224 79.42 29.0104 79.42ZM36.1243 78.628C36.4603 78.628 36.7483 78.676 36.9763 78.772V79.732C36.6643 79.636 36.3523 79.6 36.0523 79.6C35.5723 79.6 35.1643 79.804 34.8403 80.236C34.5043 80.644 34.3483 81.136 34.3483 81.712V85H33.4003V78.796H34.3483V79.876C34.5163 79.516 34.7323 79.228 34.9963 79.024C35.3203 78.76 35.6923 78.628 36.1243 78.628ZM40.4831 78.628C41.3711 78.628 42.0191 78.856 42.4511 79.324C42.8111 79.732 43.0031 80.296 43.0031 81.016V85H42.1031V83.956C41.8631 84.292 41.5391 84.568 41.1551 84.784C40.6991 85.036 40.1831 85.168 39.6071 85.168C38.9831 85.168 38.4911 85.012 38.1191 84.7C37.7351 84.376 37.5431 83.956 37.5431 83.452C37.5431 82.744 37.8191 82.216 38.3951 81.856C38.8991 81.52 39.6191 81.34 40.5551 81.328L42.0431 81.304V80.98C42.0431 79.936 41.5031 79.42 40.4231 79.42C39.9671 79.42 39.5951 79.504 39.3071 79.696C38.9831 79.888 38.7791 80.188 38.6831 80.584L37.7351 80.512C37.8671 79.864 38.1911 79.372 38.6951 79.06C39.1511 78.772 39.7391 78.628 40.4831 78.628ZM42.0431 82.024L40.6151 82.048C39.2231 82.072 38.5271 82.528 38.5271 83.428C38.5271 83.716 38.6351 83.944 38.8751 84.136C39.1151 84.316 39.4271 84.412 39.8111 84.412C40.3991 84.412 40.9151 84.22 41.3711 83.836C41.8151 83.464 42.0431 83.032 42.0431 82.552V82.024ZM47.1982 78.628C48.1462 78.628 48.7942 79.012 49.1422 79.804C49.3822 79.396 49.6702 79.096 50.0062 78.916C50.3062 78.724 50.6662 78.628 51.0982 78.628C51.7462 78.628 52.2622 78.832 52.6702 79.24C53.0542 79.66 53.2582 80.224 53.2582 80.932V85H52.2982V81.088C52.2982 80.536 52.1782 80.128 51.9502 79.864C51.7102 79.576 51.3262 79.444 50.7982 79.444C50.3902 79.444 50.0422 79.588 49.7782 79.9C49.4902 80.212 49.3582 80.608 49.3582 81.112V85H48.3982V81.088C48.3982 79.984 47.9182 79.444 46.9702 79.444C46.5262 79.444 46.1662 79.612 45.8782 79.972C45.5902 80.308 45.4462 80.728 45.4462 81.22V85H44.4862V78.796H45.4462V79.624C45.9142 78.952 46.5022 78.628 47.1982 78.628Z" fill="white"/>
<g filter="url(#filter0_d_1397_3963)">
<rect width="56" height="56" fill="#22DEAC"/>
<g clip-path="url(#clip0_1397_3963)">
<path fill-rule="evenodd" clip-rule="evenodd" d="M40.3141 16.0138C42.0366 15.2885 43.8833 16.7451 43.5791 18.5891L39.9867 40.3706C39.6403 42.4707 37.3337 43.6758 35.4069 42.6292C33.7946 41.7535 31.4025 40.4056 29.2466 38.9969C28.1701 38.2934 24.8738 36.0378 25.279 34.4322C25.6254 33.0592 31.1669 27.9009 34.3336 24.8332C35.5774 23.6282 35.0109 22.932 33.5419 24.0415C29.8977 26.7938 24.047 30.9784 22.1122 32.1561C20.4052 33.1951 19.5139 33.3724 18.4508 33.1951C16.5094 32.8716 14.7095 32.3707 13.2401 31.7615C11.254 30.9382 11.3507 28.2089 13.2387 27.414L40.3141 16.0138Z" fill="#000515"/>
</g>
</g>
<defs>
<filter id="filter0_d_1397_3963" x="0" y="0" width="59" height="59" filterUnits="userSpaceOnUse" color-interpolation-filters="sRGB">
<feFlood flood-opacity="0" result="BackgroundImageFix"/>
<feColorMatrix in="SourceAlpha" type="matrix" values="0 0 0 0 0 0 0 0 0 0 0 0 0 0 0 0 0 0 127 0" result="hardAlpha"/>
<feOffset dx="3" dy="3"/>
<feComposite in2="hardAlpha" operator="out"/>
<feColorMatrix type="matrix" values="0 0 0 0 1 0 0 0 0 1 0 0 0 0 1 0 0 0 1 0"/>
<feBlend mode="normal" in2="BackgroundImageFix" result="effect1_dropShadow_1397_3963"/>
<feBlend mode="normal" in="SourceGraphic" in2="effect1_dropShadow_1397_3963" result="shape"/>
</filter>
<clipPath id="clip0_1397_3963">
<rect width="38" height="38" fill="white" transform="translate(9 9)"/>
</clipPath>
</defs>
</svg>
