<svg width="59" height="89" viewBox="0 0 59 89" fill="none" xmlns="http://www.w3.org/2000/svg">
<path d="M8.204 76.432H15.224V77.284H12.2V85H11.228V77.284H8.204V76.432ZM15.4897 78.796H16.5457L18.0697 83.824L19.5097 78.796H20.4097L21.8497 83.824L23.3737 78.796H24.4297L22.3177 85H21.4057L19.9657 80.008L18.5017 85H17.6017L15.4897 78.796ZM26.0243 76.456C26.2283 76.456 26.3963 76.516 26.5403 76.66C26.6843 76.78 26.7563 76.948 26.7563 77.164C26.7563 77.368 26.6843 77.536 26.5403 77.68C26.3963 77.812 26.2283 77.884 26.0243 77.884C25.8203 77.884 25.6523 77.812 25.5083 77.68C25.3643 77.536 25.3043 77.368 25.3043 77.164C25.3043 76.948 25.3643 76.78 25.5083 76.66C25.6523 76.516 25.8203 76.456 26.0243 76.456ZM25.5443 78.796H26.5043V85H25.5443V78.796ZM29.9586 76.792V78.796H31.4946V79.6H29.9586V83.548C29.9586 83.776 29.9946 83.944 30.0906 84.04C30.1746 84.136 30.3306 84.196 30.5466 84.196H31.3386V85H30.4026C29.8986 85 29.5266 84.868 29.3106 84.604C29.1066 84.364 29.0106 84.016 29.0106 83.548V79.6H27.7626V78.796H29.0106V77.188L29.9586 76.792ZM34.2242 76.792V78.796H35.7602V79.6H34.2242V83.548C34.2242 83.776 34.2602 83.944 34.3562 84.04C34.4402 84.136 34.5962 84.196 34.8122 84.196H35.6042V85H34.6682C34.1642 85 33.7922 84.868 33.5762 84.604C33.3722 84.364 33.2762 84.016 33.2762 83.548V79.6H32.0282V78.796H33.2762V77.188L34.2242 76.792ZM39.3898 78.628C40.3858 78.628 41.1418 78.964 41.6458 79.636C42.1018 80.236 42.3418 81.088 42.3658 82.168H37.4698C37.5178 82.864 37.6978 83.404 38.0338 83.788C38.3698 84.172 38.8378 84.364 39.4258 84.364C39.9298 84.364 40.3498 84.232 40.6618 83.98C40.9258 83.764 41.1298 83.44 41.2858 83.008H42.2458C42.1018 83.608 41.8258 84.088 41.4058 84.472C40.8898 84.928 40.2298 85.168 39.4258 85.168C38.5378 85.168 37.8178 84.868 37.2898 84.292C36.7378 83.692 36.4738 82.9 36.4738 81.892C36.4738 80.98 36.7258 80.212 37.2538 79.6C37.7818 78.952 38.4898 78.628 39.3898 78.628ZM39.4138 79.432C38.8618 79.432 38.4178 79.612 38.0818 79.972C37.7458 80.332 37.5538 80.812 37.4938 81.424H41.3698C41.2498 80.092 40.5898 79.432 39.4138 79.432ZM46.2141 78.628C46.5501 78.628 46.8381 78.676 47.0661 78.772V79.732C46.7541 79.636 46.4421 79.6 46.1421 79.6C45.6621 79.6 45.2541 79.804 44.9301 80.236C44.5941 80.644 44.4381 81.136 44.4381 81.712V85H43.4901V78.796H44.4381V79.876C44.6061 79.516 44.8221 79.228 45.0861 79.024C45.4101 78.76 45.7821 78.628 46.2141 78.628Z" fill="white"/>
<g filter="url(#filter0_d_1397_3962)">
<rect width="56" height="56" fill="#22DEAC"/>
<path d="M36.7806 14.2891H41.4325L31.2695 25.9047L43.2255 41.7109H33.8641L26.5319 32.1245L18.1422 41.7109H13.4875L24.3578 29.2867L12.8884 14.2891H22.4875L29.1152 23.0514L36.7806 14.2891ZM35.148 38.9266H37.7256L21.0868 16.9272H18.3207L35.148 38.9266Z" fill="#000515"/>
</g>
<defs>
<filter id="filter0_d_1397_3962" x="0" y="0" width="59" height="59" filterUnits="userSpaceOnUse" color-interpolation-filters="sRGB">
<feFlood flood-opacity="0" result="BackgroundImageFix"/>
<feColorMatrix in="SourceAlpha" type="matrix" values="0 0 0 0 0 0 0 0 0 0 0 0 0 0 0 0 0 0 127 0" result="hardAlpha"/>
<feOffset dx="3" dy="3"/>
<feComposite in2="hardAlpha" operator="out"/>
<feColorMatrix type="matrix" values="0 0 0 0 1 0 0 0 0 1 0 0 0 0 1 0 0 0 1 0"/>
<feBlend mode="normal" in2="BackgroundImageFix" result="effect1_dropShadow_1397_3962"/>
<feBlend mode="normal" in="SourceGraphic" in2="effect1_dropShadow_1397_3962" result="shape"/>
</filter>
</defs>
</svg>
